<svg id="Smart-Contract-SVG" xmlns="http://www.w3.org/2000/svg" width="400" height="400" viewBox="0, 0, 400,400"
     version="1.1">
    <g id="svgg">
        <path id="path0"
              d="M157.160 22.437 C 155.520 22.876,151.641 26.831,151.223 28.492 C 151.092 29.012,151.000 31.231,151.000 33.872 C 151.000 39.709,151.002 39.705,148.855 38.125 C 148.201 37.643,147.449 37.126,147.183 36.975 C 146.398 36.528,116.526 36.466,113.500 36.904 C 101.520 38.639,90.270 49.860,88.512 61.826 C 88.123 64.478,88.026 301.692,88.413 304.536 C 90.210 317.721,102.201 329.066,115.544 330.202 C 120.871 330.655,233.948 330.375,234.900 329.906 C 235.936 329.396,239.396 325.936,239.906 324.900 C 240.255 324.191,240.300 323.678,240.300 320.374 L 240.300 316.648 239.521 315.518 C 238.568 314.134,235.906 311.597,234.865 311.080 C 234.120 310.710,232.550 310.697,174.500 310.600 C 119.496 310.508,114.836 310.474,114.073 310.167 C 111.205 309.012,109.060 306.787,108.316 304.197 C 108.028 303.194,108.003 292.097,108.049 182.986 L 108.100 62.879 108.844 61.375 C 109.765 59.511,111.271 58.030,113.148 57.140 L 114.500 56.500 130.600 56.400 C 143.744 56.318,146.789 56.250,147.183 56.025 C 147.449 55.874,148.201 55.357,148.855 54.875 C 150.976 53.314,150.971 53.305,151.046 58.900 C 151.093 62.408,151.148 62.998,151.494 63.700 C 152.004 64.736,155.464 68.196,156.500 68.706 C 157.759 69.326,242.841 69.326,244.100 68.706 C 245.136 68.196,248.596 64.736,249.106 63.700 C 249.448 63.006,249.507 62.408,249.554 59.200 C 249.631 53.923,249.556 54.044,251.883 55.450 L 253.289 56.300 270.799 56.400 L 288.309 56.500 289.705 57.187 C 292.074 58.354,293.881 60.523,294.502 62.947 C 295.013 64.943,294.850 187.592,294.335 188.161 C 294.135 188.383,293.730 188.622,293.435 188.692 C 292.444 188.929,290.842 190.215,288.985 192.264 C 286.704 194.781,287.623 193.327,276.708 211.700 C 264.750 231.829,265.340 231.033,264.404 228.311 C 263.217 224.863,258.639 220.597,255.502 220.017 C 253.840 219.710,121.360 219.710,119.698 220.017 C 116.020 220.697,110.804 226.083,110.804 229.200 C 110.804 232.381,116.080 237.759,119.827 238.397 C 120.728 238.550,140.766 238.597,188.500 238.557 L 255.900 238.500 257.026 238.045 C 257.705 237.770,258.760 237.056,259.686 236.245 C 262.611 233.682,262.891 233.486,262.962 233.956 C 263.070 234.680,263.401 234.101,248.743 258.800 C 236.980 278.620,237.556 277.851,236.613 274.964 C 235.823 272.544,232.262 268.646,229.680 267.375 L 228.308 266.700 173.700 266.700 L 119.092 266.700 117.765 267.353 C 114.631 268.896,110.800 273.601,110.800 275.908 C 110.800 278.782,115.541 284.033,118.913 284.894 C 119.997 285.171,125.920 285.199,174.313 285.152 L 228.500 285.100 229.610 284.579 C 230.234 284.287,231.630 283.254,232.795 282.224 C 235.874 279.500,236.000 279.871,233.580 284.539 C 231.809 287.954,231.756 288.235,232.600 289.731 C 233.338 291.038,233.339 291.139,232.629 292.004 C 230.089 295.100,230.277 295.544,240.214 309.900 C 281.445 369.465,284.083 373.221,286.429 375.681 C 292.476 382.021,289.661 384.835,323.300 338.826 C 355.788 294.391,354.117 296.880,353.319 294.136 C 352.900 292.695,352.916 292.338,353.420 291.882 C 354.609 290.806,355.600 289.166,355.600 288.274 C 355.600 286.704,356.728 288.620,329.238 243.500 C 316.974 223.370,306.766 206.510,306.553 206.032 C 305.899 204.566,306.162 204.206,308.317 203.624 C 310.169 203.124,314.010 199.151,314.401 197.331 C 314.562 196.585,314.605 177.819,314.557 129.400 L 314.491 62.500 314.033 60.507 C 311.402 49.071,301.748 39.495,290.400 37.064 C 288.828 36.728,287.362 36.700,270.995 36.700 L 253.290 36.700 251.883 37.550 C 249.520 38.978,249.626 39.184,249.553 33.000 C 249.506 28.992,249.457 28.413,249.106 27.700 C 248.596 26.664,245.136 23.204,244.100 22.694 C 243.189 22.245,158.811 21.996,157.160 22.437 M244.617 27.083 C 244.663 27.129,244.655 35.500,244.600 45.684 L 244.500 64.202 200.300 64.202 L 156.100 64.202 156.000 45.684 C 155.945 35.500,155.938 27.129,155.983 27.083 C 156.092 26.974,244.508 26.974,244.617 27.083 M157.891 29.091 L 157.400 29.582 157.400 45.700 L 157.400 61.818 157.891 62.309 L 158.382 62.800 200.300 62.800 L 242.218 62.800 242.709 62.309 L 243.200 61.818 243.200 45.700 L 243.200 29.582 242.709 29.091 L 242.218 28.600 200.300 28.600 L 158.382 28.600 157.891 29.091 M147.817 41.483 C 147.862 41.529,147.875 43.801,147.843 46.533 L 147.787 51.500 131.043 51.500 C 112.444 51.500,114.077 51.381,110.804 52.976 C 106.610 55.020,103.541 59.402,103.165 63.883 C 103.072 64.994,103.019 119.543,103.048 185.102 L 103.100 304.300 103.746 305.900 C 105.743 310.844,110.028 314.572,114.449 315.211 C 115.172 315.316,140.987 315.394,175.653 315.396 L 235.607 315.400 235.553 320.401 L 235.500 325.403 174.969 325.401 C 121.224 325.399,114.255 325.364,112.809 325.090 C 103.324 323.291,96.300 316.672,93.630 307.017 L 93.100 305.100 93.044 184.400 C 92.994 76.287,93.021 63.493,93.298 61.718 C 94.871 51.644,103.003 43.402,113.027 41.721 C 114.603 41.457,147.564 41.231,147.817 41.483 M290.643 41.859 C 301.112 44.443,308.312 52.368,309.578 62.700 C 309.735 63.979,309.799 83.958,309.799 131.750 L 309.800 199.000 304.700 199.000 L 299.600 199.000 299.595 131.050 C 299.592 85.173,299.523 62.808,299.384 62.200 C 298.520 58.423,295.330 54.602,291.523 52.783 C 288.600 51.387,288.457 51.379,268.756 51.445 L 252.213 51.500 252.156 46.533 C 252.125 43.801,252.141 41.525,252.191 41.475 C 252.492 41.175,289.364 41.544,290.643 41.859 M112.924 43.311 C 103.778 45.128,96.639 52.295,94.913 61.394 C 94.459 63.785,94.431 303.082,94.884 305.450 C 96.734 315.120,104.718 322.580,114.500 323.778 C 115.774 323.934,133.347 323.999,174.659 323.999 L 233.018 324.000 233.509 323.509 C 233.978 323.040,234.000 322.907,234.000 320.500 C 234.000 318.093,233.978 317.960,233.509 317.491 L 233.018 317.000 175.159 316.998 C 137.427 316.997,116.674 316.926,115.500 316.794 C 108.462 316.002,102.663 310.501,101.805 303.800 C 101.389 300.555,101.625 62.757,102.045 61.400 C 103.671 56.153,107.810 52.018,113.000 50.454 C 113.969 50.163,115.977 50.110,129.868 50.012 L 145.636 49.900 146.018 49.428 C 146.666 48.627,146.584 44.166,145.909 43.491 L 145.418 43.000 129.859 43.019 C 117.569 43.034,114.011 43.095,112.924 43.311 M254.091 43.491 C 253.416 44.166,253.334 48.627,253.982 49.428 L 254.364 49.900 271.532 50.004 L 288.700 50.107 290.100 50.576 C 295.377 52.345,299.179 56.316,300.749 61.700 C 301.078 62.829,301.105 66.852,301.199 129.840 C 301.281 184.318,301.348 196.828,301.559 197.040 C 302.124 197.606,307.106 197.512,307.694 196.924 L 308.200 196.418 308.200 130.035 C 308.200 57.027,308.287 62.210,306.997 58.359 C 304.733 51.602,299.484 46.371,292.672 44.084 C 289.433 42.997,289.495 43.000,271.373 43.000 L 254.582 43.000 254.091 43.491 M118.800 79.121 C 115.506 80.003,110.800 85.281,110.800 88.092 C 110.800 90.399,114.631 95.104,117.765 96.647 L 119.092 97.300 200.300 97.300 L 281.508 97.300 282.835 96.647 C 286.088 95.045,289.697 90.550,289.697 88.100 C 289.697 85.147,285.116 79.992,281.708 79.109 C 279.938 78.650,120.513 78.662,118.800 79.121 M282.000 83.797 C 285.618 84.804,286.188 89.869,282.910 91.895 L 281.931 92.500 200.300 92.500 L 118.669 92.500 117.690 91.895 C 114.464 89.901,114.971 84.848,118.500 83.812 C 119.352 83.562,281.102 83.547,282.000 83.797 M118.803 85.655 C 116.774 86.728,116.708 89.032,118.665 90.482 L 119.229 90.900 200.300 90.900 L 281.371 90.900 281.935 90.482 C 283.892 89.032,283.826 86.728,281.797 85.655 L 280.937 85.200 200.300 85.200 L 119.663 85.200 118.803 85.655 M119.245 127.012 C 116.011 127.652,110.800 133.265,110.800 136.108 C 110.800 138.970,115.528 144.220,118.892 145.091 C 120.711 145.562,279.889 145.562,281.708 145.091 C 285.116 144.208,289.697 139.053,289.697 136.100 C 289.697 133.650,286.088 129.155,282.835 127.553 L 281.508 126.900 200.804 126.871 C 156.417 126.855,119.715 126.919,119.245 127.012 M282.910 132.305 C 286.111 134.284,285.737 138.872,282.256 140.330 C 281.296 140.733,119.304 140.733,118.344 140.330 C 114.439 138.694,114.587 133.304,118.577 131.875 C 119.165 131.665,134.500 131.624,200.616 131.658 L 281.931 131.700 282.910 132.305 M119.324 133.406 C 116.846 134.150,116.523 137.340,118.803 138.545 L 119.663 139.000 200.300 139.000 L 280.937 139.000 281.797 138.545 C 283.826 137.472,283.892 135.168,281.935 133.718 L 281.371 133.300 200.635 133.267 C 155.675 133.248,119.645 133.310,119.324 133.406 M118.800 174.521 C 115.506 175.403,110.800 180.681,110.800 183.492 C 110.800 185.799,114.631 190.504,117.765 192.047 L 119.092 192.700 200.300 192.700 L 281.508 192.700 282.835 192.047 C 285.809 190.583,289.535 186.130,289.748 183.786 C 290.007 180.928,285.236 175.423,281.708 174.509 C 279.938 174.050,120.513 174.062,118.800 174.521 M282.000 179.197 C 285.618 180.204,286.188 185.269,282.910 187.295 L 281.931 187.900 200.300 187.900 L 118.669 187.900 117.690 187.295 C 114.464 185.301,114.971 180.248,118.500 179.212 C 119.352 178.962,281.102 178.947,282.000 179.197 M118.803 181.055 C 116.774 182.128,116.708 184.432,118.665 185.882 L 119.229 186.300 200.300 186.300 L 281.371 186.300 281.935 185.882 C 283.892 184.432,283.826 182.128,281.797 181.055 L 280.937 180.600 200.300 180.600 L 119.663 180.600 118.803 181.055 M293.858 193.817 C 294.356 194.719,301.478 206.428,332.899 258.000 C 337.825 266.085,343.881 276.030,346.357 280.100 C 348.832 284.170,351.041 287.762,351.266 288.083 C 351.774 288.809,354.715 286.824,330.000 302.435 C 318.505 309.696,305.840 317.701,301.855 320.225 L 294.611 324.815 265.728 307.010 C 249.843 297.217,236.701 289.149,236.523 289.081 C 236.001 288.881,235.077 290.472,264.370 241.140 C 279.864 215.048,292.647 193.498,292.777 193.250 C 293.112 192.615,293.228 192.676,293.858 193.817 M292.323 197.252 C 291.861 197.858,241.134 283.165,239.526 286.040 C 238.686 287.543,238.623 288.164,239.250 288.752 C 239.773 289.242,292.276 321.645,293.560 322.271 C 294.857 322.902,294.007 323.397,321.800 305.819 C 349.746 288.143,348.742 288.799,348.919 288.094 C 349.082 287.448,346.139 282.568,297.245 202.400 C 293.307 195.943,293.315 195.951,292.323 197.252 M257.172 225.186 C 257.587 225.398,258.247 225.924,258.637 226.356 C 260.550 228.474,259.827 231.860,257.172 233.214 C 256.430 233.593,255.159 233.600,187.600 233.600 C 120.041 233.600,118.770 233.593,118.028 233.214 C 114.625 231.478,114.665 226.934,118.100 225.131 C 119.136 224.587,256.104 224.641,257.172 225.186 M119.337 226.489 C 116.765 227.409,116.465 230.317,118.801 231.689 L 119.500 232.100 187.600 232.100 L 255.700 232.100 256.399 231.689 C 258.493 230.459,258.493 227.941,256.399 226.711 L 255.700 226.300 187.900 226.258 C 131.064 226.223,119.977 226.260,119.337 226.489 M228.624 271.603 C 232.696 272.734,233.141 278.277,229.300 280.027 C 228.232 280.513,119.499 280.615,118.344 280.130 C 114.439 278.494,114.588 273.102,118.577 271.676 C 119.501 271.346,227.439 271.274,228.624 271.603 M119.324 273.206 C 116.846 273.951,116.523 277.139,118.803 278.345 L 119.663 278.800 173.681 278.796 C 226.517 278.791,227.719 278.783,228.546 278.407 C 230.640 277.456,230.763 274.704,228.764 273.500 C 228.048 273.069,120.739 272.781,119.324 273.206 M234.984 294.075 C 235.158 294.227,244.615 299.865,256.000 306.605 C 281.518 321.713,293.774 328.977,294.299 329.306 C 294.656 329.531,331.643 306.382,347.988 295.705 C 350.722 293.920,350.775 293.929,349.252 295.936 C 348.160 297.375,293.348 372.294,291.810 374.450 C 290.973 375.623,291.078 375.647,290.015 374.039 C 289.160 372.745,245.073 309.179,238.089 299.171 C 233.954 293.244,233.866 293.100,234.984 294.075 M241.200 300.504 C 241.200 300.937,243.189 303.839,267.593 339.000 C 291.960 374.109,290.458 372.000,291.103 372.000 C 291.742 372.000,290.128 374.154,315.832 339.000 C 344.505 299.786,343.072 301.792,342.607 301.504 C 342.163 301.230,343.262 300.556,317.300 317.003 C 295.208 330.998,296.091 330.472,294.700 330.478 C 293.317 330.483,293.783 330.743,271.609 317.610 C 238.887 298.230,241.200 299.531,241.200 300.504 "
              stroke="none" fill="#fbfbfc" fill-rule="evenodd"></path>
        <path id="path1"
              d="M156.000 45.600 L 156.000 64.200 200.300 64.200 L 244.600 64.200 244.600 45.600 L 244.600 27.000 200.300 27.000 L 156.000 27.000 156.000 45.600 M243.269 27.822 C 244.208 28.250,244.200 28.093,244.200 45.700 C 244.200 63.307,244.208 63.150,243.269 63.578 C 242.574 63.894,158.026 63.894,157.331 63.578 C 156.392 63.150,156.400 63.307,156.400 45.700 C 156.400 28.259,156.400 28.256,157.273 27.834 C 157.898 27.531,242.605 27.520,243.269 27.822 M114.504 41.621 C 104.223 42.703,96.018 50.168,93.532 60.700 L 93.107 62.500 93.045 181.800 C 93.000 266.610,93.045 301.765,93.200 303.400 C 94.286 314.889,102.660 323.633,114.064 325.187 C 115.143 325.334,134.253 325.400,175.564 325.400 L 235.500 325.400 235.500 320.401 L 235.500 315.402 174.500 315.351 L 113.500 315.300 111.135 314.140 C 107.156 312.188,103.999 308.353,103.201 304.500 C 103.058 303.815,103.010 265.524,103.047 182.800 L 103.100 62.100 103.807 60.600 C 105.190 57.664,105.581 57.081,107.256 55.450 C 108.728 54.017,109.264 53.648,111.326 52.650 L 113.700 51.500 130.750 51.444 L 147.800 51.387 147.800 46.394 L 147.800 41.400 131.950 41.427 C 123.233 41.441,115.382 41.529,114.504 41.621 M252.200 46.389 L 252.200 51.400 269.873 51.400 C 289.529 51.400,288.765 51.351,291.756 52.810 C 295.158 54.470,297.159 56.619,298.876 60.458 L 299.700 62.300 299.750 130.565 L 299.800 198.830 304.702 198.830 L 309.605 198.830 309.601 131.065 C 309.598 72.613,309.557 63.052,309.305 61.495 C 307.943 53.078,301.917 45.853,293.800 42.905 C 289.892 41.485,290.676 41.534,270.450 41.452 L 252.200 41.379 252.200 46.389 M146.469 42.222 C 147.265 42.585,147.400 43.203,147.400 46.500 C 147.400 49.841,147.262 50.447,146.424 50.783 C 146.078 50.922,140.533 51.015,130.100 51.057 C 112.413 51.128,113.599 51.033,110.400 52.635 C 106.978 54.349,103.879 58.253,102.968 62.000 C 102.571 63.628,102.569 303.403,102.965 304.900 C 104.052 309.007,107.105 312.693,110.921 314.503 C 114.115 316.019,108.043 315.877,174.400 315.994 C 207.125 316.052,234.045 316.172,234.223 316.261 C 234.853 316.575,235.000 317.376,235.000 320.500 C 235.000 323.797,234.865 324.415,234.069 324.778 C 233.379 325.092,116.865 325.093,114.300 324.778 C 104.791 323.613,97.085 316.901,94.234 307.300 L 93.700 305.500 93.642 184.500 C 93.599 96.671,93.644 63.061,93.805 61.900 C 95.127 52.371,103.193 44.048,112.790 42.309 C 114.775 41.950,145.695 41.870,146.469 42.222 M291.555 42.654 C 300.326 45.213,306.116 51.109,308.570 59.983 L 309.100 61.900 309.153 129.400 C 309.208 200.562,309.244 197.733,308.277 198.174 C 307.052 198.732,301.057 198.407,300.352 197.745 C 300.326 197.720,300.259 167.370,300.202 130.300 L 300.100 62.900 299.551 61.300 C 297.930 56.574,294.694 53.274,290.100 51.662 L 288.500 51.100 271.300 51.047 C 253.244 50.992,253.243 50.991,252.826 50.077 C 252.526 49.419,252.524 43.587,252.823 42.930 C 253.244 42.006,252.999 42.017,271.800 42.066 L 289.700 42.113 291.555 42.654 M118.753 83.799 C 114.844 84.979,114.456 90.219,118.140 92.077 C 119.125 92.574,281.475 92.574,282.460 92.077 C 285.719 90.433,285.917 86.061,282.814 84.237 L 281.900 83.700 200.600 83.667 C 155.885 83.648,119.054 83.708,118.753 83.799 M282.379 84.700 C 285.275 86.407,285.065 90.193,281.996 91.585 L 281.100 91.991 200.300 91.991 L 119.500 91.991 118.604 91.585 C 115.314 90.093,115.391 85.684,118.727 84.492 C 120.186 83.971,281.490 84.176,282.379 84.700 M118.100 132.132 C 114.874 133.830,114.700 138.149,117.786 139.963 L 118.700 140.500 200.300 140.500 L 281.900 140.500 282.854 139.939 C 285.925 138.134,285.704 133.759,282.460 132.123 C 281.488 131.632,119.032 131.641,118.100 132.132 M281.996 132.615 C 285.065 134.007,285.275 137.793,282.379 139.500 C 281.703 139.898,281.340 139.900,200.300 139.900 C 119.260 139.900,118.897 139.898,118.221 139.500 C 115.325 137.793,115.535 134.007,118.604 132.615 L 119.500 132.209 200.300 132.209 L 281.100 132.209 281.996 132.615 M118.753 179.199 C 114.844 180.379,114.456 185.619,118.140 187.477 C 119.125 187.974,281.475 187.974,282.460 187.477 C 285.719 185.833,285.917 181.461,282.814 179.637 L 281.900 179.100 200.600 179.067 C 155.885 179.048,119.054 179.108,118.753 179.199 M282.379 180.100 C 285.275 181.807,285.065 185.593,281.996 186.985 L 281.100 187.391 200.300 187.391 L 119.500 187.391 118.604 186.985 C 115.314 185.493,115.391 181.084,118.727 179.892 C 120.186 179.371,281.490 179.576,282.379 180.100 M292.496 193.850 C 291.836 195.070,286.974 203.267,244.843 274.200 C 240.498 281.515,236.776 287.739,236.572 288.031 C 236.075 288.741,236.034 288.671,237.450 289.524 C 240.038 291.084,291.959 323.091,293.259 323.928 L 294.617 324.803 295.759 324.034 C 296.853 323.296,310.328 314.765,338.035 297.268 C 345.150 292.776,351.115 289.010,351.292 288.900 C 351.578 288.721,351.561 288.625,351.133 287.999 C 350.444 286.994,295.081 196.124,293.710 193.750 C 293.046 192.600,293.178 192.589,292.496 193.850 M293.834 195.250 C 294.322 195.643,294.655 196.179,307.448 217.200 C 314.109 228.145,326.407 248.341,334.776 262.081 C 343.569 276.516,350.048 287.351,350.122 287.749 C 350.312 288.757,349.834 289.264,346.982 291.080 C 339.442 295.880,296.232 323.173,295.863 323.369 C 294.984 323.834,293.776 323.648,292.397 322.836 C 291.684 322.415,282.370 316.687,271.700 310.105 C 261.030 303.524,249.240 296.253,245.500 293.947 C 236.474 288.382,236.762 288.724,238.533 285.696 C 244.634 275.263,291.945 195.784,292.254 195.450 C 292.715 194.951,293.361 194.869,293.834 195.250 M118.448 225.067 C 114.609 226.459,114.703 232.209,118.584 233.372 C 119.679 233.700,255.521 233.700,256.616 233.372 C 260.557 232.191,260.557 226.209,256.616 225.028 C 255.497 224.693,119.373 224.731,118.448 225.067 M256.873 225.779 C 257.544 226.109,258.024 226.540,258.423 227.168 C 259.650 229.103,258.939 231.604,256.873 232.621 L 255.900 233.100 187.600 233.100 L 119.300 233.100 118.327 232.621 C 115.778 231.366,115.438 227.601,117.738 226.094 C 119.119 225.188,116.155 225.224,187.900 225.263 L 255.900 225.300 256.873 225.779 M118.100 271.931 C 114.873 273.632,114.700 277.949,117.786 279.763 L 118.700 280.300 173.700 280.300 L 228.700 280.300 229.500 279.869 C 232.511 278.249,232.757 274.101,229.954 272.246 L 229.129 271.700 173.915 271.657 C 123.900 271.619,118.643 271.645,118.100 271.931 M228.416 272.228 C 231.694 273.211,232.299 277.466,229.402 279.170 L 228.500 279.700 173.700 279.700 C 119.260 279.700,118.896 279.697,118.221 279.300 C 115.325 277.593,115.535 273.807,118.604 272.415 C 119.677 271.929,226.806 271.746,228.416 272.228 M234.600 294.093 C 234.600 294.144,235.304 295.157,236.165 296.343 C 237.691 298.447,241.012 303.221,267.231 341.000 C 274.216 351.065,282.186 362.548,284.943 366.518 C 287.699 370.488,290.196 374.118,290.490 374.584 L 291.025 375.431 291.854 374.265 C 293.767 371.578,346.247 299.864,348.152 297.334 C 349.298 295.813,350.197 294.531,350.152 294.485 C 350.106 294.440,348.996 295.107,347.685 295.968 C 346.373 296.828,334.185 304.577,320.600 313.187 C 307.015 321.797,295.765 328.975,295.600 329.139 C 294.657 330.071,298.245 327.881,313.200 318.398 C 347.890 296.400,346.000 297.530,346.000 298.781 C 346.000 299.503,347.660 297.195,316.204 340.200 C 290.879 374.824,292.114 373.167,291.455 373.417 C 290.381 373.826,293.501 378.118,264.725 336.645 C 235.885 295.080,237.961 298.148,238.305 297.591 C 238.717 296.925,237.692 296.349,266.726 313.546 C 291.430 328.178,293.745 329.521,293.937 329.329 C 294.032 329.235,290.254 326.962,275.200 318.053 C 249.517 302.855,238.641 296.399,236.836 295.280 C 234.796 294.015,234.600 293.911,234.600 294.093 "
              stroke="none" fill="#d0e3f4" fill-rule="evenodd"></path>
        <path id="path2"
              d="M157.273 27.834 C 156.400 28.256,156.400 28.259,156.400 45.700 C 156.400 63.307,156.392 63.150,157.331 63.578 C 158.026 63.894,242.574 63.894,243.269 63.578 C 244.208 63.150,244.200 63.307,244.200 45.700 C 244.200 28.093,244.208 28.250,243.269 27.822 C 242.605 27.520,157.898 27.531,157.273 27.834 M243.148 28.156 C 243.887 28.578,243.900 28.894,243.900 45.900 C 243.900 63.587,243.933 63.043,242.844 63.348 C 242.133 63.547,158.467 63.547,157.756 63.348 C 156.674 63.045,156.705 63.511,156.639 46.600 C 156.565 27.720,156.518 28.356,158.010 28.002 C 159.247 27.709,242.628 27.859,243.148 28.156 M112.790 42.309 C 103.193 44.048,95.127 52.371,93.805 61.900 C 93.644 63.061,93.599 96.671,93.642 184.500 L 93.700 305.500 94.234 307.300 C 97.085 316.901,104.791 323.613,114.300 324.778 C 116.865 325.093,233.379 325.092,234.069 324.778 C 235.346 324.196,235.479 316.887,234.223 316.261 C 234.045 316.172,207.125 316.052,174.400 315.994 C 108.043 315.877,114.115 316.019,110.921 314.503 C 107.105 312.693,104.052 309.007,102.965 304.900 C 102.569 303.403,102.571 63.628,102.968 62.000 C 103.879 58.253,106.978 54.349,110.400 52.635 C 113.599 51.033,112.413 51.128,130.100 51.057 C 140.533 51.015,146.078 50.922,146.424 50.783 C 147.262 50.447,147.400 49.841,147.400 46.500 C 147.400 43.203,147.265 42.585,146.469 42.222 C 145.695 41.870,114.775 41.950,112.790 42.309 M253.473 42.230 C 252.625 42.648,252.137 48.565,252.826 50.077 C 253.243 50.991,253.244 50.992,271.300 51.047 L 288.500 51.100 290.100 51.662 C 294.694 53.274,297.930 56.574,299.551 61.300 L 300.100 62.900 300.202 130.300 C 300.259 167.370,300.326 197.720,300.352 197.745 C 301.057 198.407,307.052 198.732,308.277 198.174 C 309.244 197.733,309.208 200.562,309.153 129.400 L 309.100 61.900 308.570 59.983 C 306.116 51.109,300.326 45.213,291.555 42.654 L 289.700 42.113 271.800 42.066 C 259.575 42.034,253.765 42.086,253.473 42.230 M146.348 42.556 C 147.465 43.194,147.465 49.806,146.348 50.444 C 145.999 50.644,142.346 50.724,129.800 50.808 C 112.034 50.927,113.287 50.830,110.386 52.322 C 106.616 54.261,103.614 57.975,102.706 61.825 C 102.252 63.751,102.243 303.314,102.697 305.056 C 103.756 309.123,106.703 312.733,110.500 314.618 C 113.777 316.245,107.167 316.080,173.900 316.196 C 221.781 316.280,233.588 316.350,233.948 316.556 C 234.587 316.921,234.700 317.544,234.700 320.700 C 234.700 323.767,234.556 324.293,233.644 324.548 C 232.593 324.842,115.901 324.732,114.019 324.435 C 104.162 322.878,96.771 316.106,94.336 306.400 L 93.909 304.700 93.846 184.800 C 93.800 97.549,93.844 64.361,94.006 62.922 C 95.192 52.403,103.677 43.747,114.100 42.422 C 116.427 42.127,145.809 42.248,146.348 42.556 M290.600 42.745 C 299.970 45.051,306.631 51.956,308.543 61.345 C 308.922 63.208,309.122 195.707,308.748 197.044 C 308.508 197.899,307.933 198.074,305.100 198.157 C 301.864 198.252,301.013 198.030,300.661 196.999 C 300.478 196.463,300.420 180.816,300.411 129.987 C 300.404 84.359,300.334 63.317,300.189 62.532 C 299.454 58.555,296.299 54.330,292.658 52.447 C 289.417 50.771,291.220 50.912,271.600 50.800 C 253.868 50.699,253.567 50.684,253.160 49.926 C 252.639 48.956,252.723 43.655,253.271 42.905 C 253.736 42.271,254.898 42.231,271.900 42.279 C 288.389 42.325,288.951 42.339,290.600 42.745 M299.699 131.000 C 299.699 167.905,299.722 183.003,299.750 164.550 C 299.778 146.098,299.778 115.903,299.750 97.450 C 299.722 78.998,299.699 94.095,299.699 131.000 M118.727 84.492 C 115.391 85.684,115.314 90.093,118.604 91.585 L 119.500 91.991 200.300 91.991 L 281.100 91.991 281.996 91.585 C 285.065 90.193,285.275 86.407,282.379 84.700 C 281.490 84.176,120.186 83.971,118.727 84.492 M282.150 84.954 C 284.807 86.374,284.730 89.911,282.012 91.251 L 281.100 91.700 200.300 91.700 L 119.500 91.700 118.588 91.251 C 115.296 89.628,116.032 85.220,119.700 84.586 C 120.140 84.510,156.680 84.460,200.900 84.474 L 281.300 84.500 282.150 84.954 M120.050 92.543 C 120.353 92.589,120.847 92.589,121.150 92.543 C 121.453 92.497,121.205 92.460,120.600 92.460 C 119.995 92.460,119.748 92.497,120.050 92.543 M279.450 92.543 C 279.752 92.589,280.248 92.589,280.550 92.543 C 280.853 92.497,280.605 92.460,280.000 92.460 C 279.395 92.460,279.147 92.497,279.450 92.543 M120.050 131.743 C 120.353 131.789,120.847 131.789,121.150 131.743 C 121.453 131.697,121.205 131.660,120.600 131.660 C 119.995 131.660,119.748 131.697,120.050 131.743 M279.450 131.743 C 279.752 131.789,280.248 131.789,280.550 131.743 C 280.853 131.697,280.605 131.660,280.000 131.660 C 279.395 131.660,279.147 131.697,279.450 131.743 M118.604 132.615 C 115.535 134.007,115.325 137.793,118.221 139.500 C 118.897 139.898,119.260 139.900,200.300 139.900 C 281.340 139.900,281.703 139.898,282.379 139.500 C 285.275 137.793,285.065 134.007,281.996 132.615 L 281.100 132.209 200.300 132.209 L 119.500 132.209 118.604 132.615 M282.012 132.949 C 284.730 134.289,284.807 137.826,282.150 139.246 L 281.300 139.700 200.300 139.700 L 119.300 139.700 118.450 139.246 C 115.274 137.549,116.129 133.220,119.762 132.604 C 120.278 132.517,156.790 132.458,200.900 132.473 L 281.100 132.500 282.012 132.949 M118.727 179.892 C 115.391 181.084,115.314 185.493,118.604 186.985 L 119.500 187.391 200.300 187.391 L 281.100 187.391 281.996 186.985 C 285.065 185.593,285.275 181.807,282.379 180.100 C 281.490 179.576,120.186 179.371,118.727 179.892 M282.150 180.354 C 284.807 181.774,284.730 185.311,282.012 186.651 L 281.100 187.100 200.300 187.100 L 119.500 187.100 118.588 186.651 C 115.296 185.028,116.032 180.620,119.700 179.986 C 120.140 179.910,156.680 179.860,200.900 179.874 L 281.300 179.900 282.150 180.354 M120.050 187.943 C 120.353 187.989,120.847 187.989,121.150 187.943 C 121.453 187.897,121.205 187.860,120.600 187.860 C 119.995 187.860,119.748 187.897,120.050 187.943 M279.450 187.943 C 279.752 187.989,280.248 187.989,280.550 187.943 C 280.853 187.897,280.605 187.860,280.000 187.860 C 279.395 187.860,279.147 187.897,279.450 187.943 M292.254 195.450 C 291.945 195.784,244.634 275.263,238.533 285.696 C 236.762 288.724,236.474 288.382,245.500 293.947 C 249.240 296.253,261.030 303.524,271.700 310.105 C 282.370 316.687,291.684 322.415,292.397 322.836 C 293.776 323.648,294.984 323.834,295.863 323.369 C 296.232 323.173,339.442 295.880,346.982 291.080 C 349.834 289.264,350.312 288.757,350.122 287.749 C 350.048 287.351,343.569 276.516,334.776 262.081 C 326.407 248.341,314.109 228.145,307.448 217.200 C 294.655 196.179,294.322 195.643,293.834 195.250 C 293.361 194.869,292.715 194.951,292.254 195.450 M293.970 195.976 C 294.261 196.293,295.725 198.566,297.223 201.026 C 298.720 203.487,310.774 223.275,324.008 245.000 C 353.400 293.247,350.341 287.944,349.378 288.978 C 348.859 289.535,351.071 288.120,321.112 307.062 C 293.614 324.449,294.992 323.646,293.639 323.070 C 292.921 322.764,245.154 293.448,239.833 290.048 C 237.470 288.538,237.451 288.218,239.510 284.688 C 245.582 274.281,291.817 196.628,292.265 196.085 C 292.953 195.250,293.282 195.229,293.970 195.976 M309.666 196.900 C 309.667 197.670,309.703 197.960,309.746 197.546 C 309.789 197.131,309.789 196.501,309.744 196.146 C 309.700 195.790,309.665 196.130,309.666 196.900 M300.950 198.945 C 301.308 198.989,301.893 198.989,302.250 198.945 C 302.608 198.900,302.315 198.864,301.600 198.864 C 300.885 198.864,300.593 198.900,300.950 198.945 M306.946 198.944 C 307.301 198.989,307.931 198.989,308.346 198.946 C 308.760 198.903,308.470 198.867,307.700 198.866 C 306.930 198.865,306.590 198.900,306.946 198.944 M119.096 225.478 C 115.579 226.583,115.100 231.033,118.327 232.621 L 119.300 233.100 187.600 233.100 L 255.900 233.100 256.873 232.621 C 257.544 232.291,258.024 231.860,258.423 231.232 C 259.650 229.297,258.939 226.796,256.873 225.779 L 255.900 225.300 187.900 225.263 C 133.602 225.233,119.738 225.276,119.096 225.478 M256.347 225.871 C 259.492 227.246,259.427 231.308,256.241 232.537 C 254.773 233.104,120.427 233.104,118.959 232.537 C 115.209 231.090,115.915 226.294,119.981 225.602 C 122.261 225.213,255.446 225.476,256.347 225.871 M120.050 271.543 C 120.353 271.589,120.847 271.589,121.150 271.543 C 121.453 271.497,121.205 271.460,120.600 271.460 C 119.995 271.460,119.748 271.497,120.050 271.543 M226.453 271.544 C 226.757 271.589,227.207 271.588,227.453 271.541 C 227.699 271.493,227.450 271.456,226.900 271.457 C 226.350 271.459,226.149 271.498,226.453 271.544 M118.604 272.415 C 115.535 273.807,115.325 277.593,118.221 279.300 C 118.896 279.697,119.260 279.700,173.700 279.700 L 228.500 279.700 229.402 279.170 C 232.299 277.466,231.694 273.211,228.416 272.228 C 226.806 271.746,119.677 271.929,118.604 272.415 M228.905 272.812 C 231.637 274.218,231.651 277.601,228.931 279.056 L 228.100 279.500 173.700 279.500 L 119.300 279.500 118.450 279.046 C 115.274 277.349,116.129 273.021,119.762 272.404 C 120.278 272.317,144.822 272.257,174.305 272.272 L 227.911 272.300 228.905 272.812 M238.305 297.591 C 237.961 298.148,235.885 295.080,264.725 336.645 C 293.501 378.118,290.381 373.826,291.455 373.417 C 292.114 373.167,290.879 374.824,316.204 340.200 C 347.660 297.195,346.000 299.503,346.000 298.781 C 346.000 297.531,347.900 296.395,313.296 318.336 C 295.396 329.685,296.081 329.264,295.739 329.139 C 295.608 329.091,295.346 329.186,295.157 329.350 C 294.941 329.539,294.683 329.591,294.457 329.493 C 294.261 329.407,294.031 329.351,293.946 329.370 C 293.613 329.441,290.891 327.859,266.726 313.546 C 237.692 296.349,238.717 296.925,238.305 297.591 M240.857 298.725 C 242.221 299.412,242.881 299.801,269.000 315.270 C 293.964 330.055,293.515 329.800,294.621 329.800 C 295.821 329.800,296.074 329.648,316.843 316.477 C 346.423 297.718,345.000 298.573,345.000 299.569 C 345.000 300.319,346.336 298.462,314.124 342.500 C 289.021 376.820,291.447 373.810,290.061 372.350 C 289.555 371.817,245.096 307.897,241.061 301.900 C 238.618 298.270,238.573 297.575,240.857 298.725 M107.100 311.400 C 107.530 311.840,107.926 312.200,107.981 312.200 C 108.036 312.200,107.730 311.840,107.300 311.400 C 106.870 310.960,106.474 310.600,106.419 310.600 C 106.364 310.600,106.670 310.960,107.100 311.400 M235.466 317.500 C 235.467 318.270,235.503 318.560,235.546 318.146 C 235.589 317.731,235.589 317.101,235.544 316.746 C 235.500 316.390,235.465 316.730,235.466 317.500 M235.466 323.500 C 235.467 324.270,235.503 324.560,235.546 324.146 C 235.589 323.731,235.589 323.101,235.544 322.746 C 235.500 322.390,235.465 322.730,235.466 323.500 "
              stroke="none" fill="#deecf6" fill-rule="evenodd"></path>
        <path id="path3"
              d="M157.804 28.256 C 156.774 28.779,156.799 28.321,156.851 45.944 L 156.900 62.389 157.356 62.844 L 157.811 63.300 200.300 63.300 L 242.789 63.300 243.244 62.844 L 243.700 62.389 243.700 45.700 L 243.700 29.011 243.244 28.556 L 242.789 28.100 200.544 28.052 C 166.912 28.014,158.199 28.056,157.804 28.256 M242.709 29.091 L 243.200 29.582 243.200 45.700 L 243.200 61.818 242.709 62.309 L 242.218 62.800 200.300 62.800 L 158.382 62.800 157.891 62.309 L 157.400 61.818 157.400 45.700 L 157.400 29.582 157.891 29.091 L 158.382 28.600 200.300 28.600 L 242.218 28.600 242.709 29.091 M113.763 42.614 C 104.468 43.992,97.118 50.739,94.547 60.254 L 94.103 61.900 94.040 182.300 C 93.993 271.611,94.036 303.165,94.205 304.500 C 95.338 313.440,102.292 321.308,111.151 323.677 C 114.721 324.631,114.046 324.622,175.544 324.559 L 233.589 324.500 234.044 324.044 C 234.747 323.341,234.747 317.659,234.044 316.956 L 233.589 316.500 174.044 316.399 C 107.190 316.287,113.889 316.455,110.500 314.801 C 106.881 313.035,104.377 310.154,102.751 305.884 L 102.300 304.700 102.249 184.142 C 102.204 78.278,102.234 63.408,102.494 62.142 C 103.314 58.156,106.392 54.188,110.189 52.222 C 113.288 50.616,111.994 50.722,129.945 50.605 L 145.989 50.500 146.445 50.044 C 147.147 49.341,147.147 43.658,146.445 42.956 L 145.989 42.500 130.445 42.473 C 121.895 42.458,114.388 42.521,113.763 42.614 M254.004 42.657 C 252.852 43.240,252.503 48.993,253.555 50.045 L 254.011 50.500 271.455 50.600 L 288.900 50.700 290.337 51.225 C 295.048 52.948,298.492 56.526,300.130 61.400 C 300.486 62.459,300.504 65.010,300.600 129.700 C 300.655 166.660,300.777 197.057,300.871 197.248 C 301.326 198.176,307.354 198.337,308.245 197.444 L 308.700 196.989 308.700 129.944 C 308.700 56.963,308.780 62.060,307.573 58.331 C 304.941 50.208,297.767 44.067,289.305 42.694 C 286.835 42.294,254.789 42.260,254.004 42.657 M145.909 43.491 C 146.584 44.166,146.666 48.627,146.018 49.428 L 145.636 49.900 129.868 50.012 C 112.152 50.137,113.436 50.026,110.000 51.725 C 106.383 53.514,103.343 57.211,102.045 61.400 C 101.625 62.757,101.389 300.555,101.805 303.800 C 102.663 310.501,108.462 316.002,115.500 316.794 C 116.674 316.926,137.427 316.997,175.159 316.998 L 233.018 317.000 233.509 317.491 C 233.978 317.960,234.000 318.093,234.000 320.500 C 234.000 322.907,233.978 323.040,233.509 323.509 L 233.018 324.000 174.659 323.999 C 133.347 323.999,115.774 323.934,114.500 323.778 C 104.718 322.580,96.734 315.120,94.884 305.450 C 94.431 303.082,94.459 63.785,94.913 61.394 C 96.437 53.358,102.271 46.674,110.010 44.097 C 113.192 43.037,113.157 43.039,129.859 43.019 L 145.418 43.000 145.909 43.491 M289.650 43.284 C 297.784 44.840,304.392 50.582,306.997 58.359 C 308.287 62.210,308.200 57.027,308.200 130.035 L 308.200 196.418 307.694 196.924 C 307.106 197.512,302.124 197.606,301.559 197.040 C 301.348 196.828,301.281 184.318,301.199 129.840 C 301.105 66.852,301.078 62.829,300.749 61.700 C 299.179 56.316,295.377 52.345,290.100 50.576 L 288.700 50.107 271.532 50.004 L 254.364 49.900 253.982 49.428 C 253.334 48.627,253.416 44.166,254.091 43.491 L 254.582 43.000 271.373 43.000 C 285.053 43.000,288.440 43.053,289.650 43.284 M295.400 55.500 C 295.773 55.885,296.123 56.200,296.178 56.200 C 296.233 56.200,295.973 55.885,295.600 55.500 C 295.227 55.115,294.877 54.800,294.822 54.800 C 294.767 54.800,295.027 55.115,295.400 55.500 M119.133 84.845 C 116.132 85.640,115.848 89.609,118.680 91.160 C 119.641 91.687,280.959 91.687,281.920 91.160 C 284.829 89.567,284.464 85.618,281.334 84.829 C 280.118 84.523,120.289 84.538,119.133 84.845 M281.797 85.655 C 283.826 86.728,283.892 89.032,281.935 90.482 L 281.371 90.900 200.300 90.900 L 119.229 90.900 118.665 90.482 C 116.708 89.032,116.774 86.728,118.803 85.655 L 119.663 85.200 200.300 85.200 L 280.937 85.200 281.797 85.655 M119.500 132.785 C 115.887 133.661,115.716 138.477,119.266 139.371 C 120.576 139.701,280.024 139.701,281.334 139.371 C 284.464 138.582,284.829 134.633,281.920 133.040 C 281.264 132.680,120.969 132.429,119.500 132.785 M281.935 133.718 C 283.892 135.168,283.826 137.472,281.797 138.545 L 280.937 139.000 200.300 139.000 L 119.663 139.000 118.803 138.545 C 116.523 137.340,116.846 134.150,119.324 133.406 C 119.645 133.310,155.675 133.248,200.635 133.267 L 281.371 133.300 281.935 133.718 M119.133 180.245 C 116.132 181.040,115.848 185.009,118.680 186.560 C 119.641 187.087,280.959 187.087,281.920 186.560 C 284.829 184.967,284.464 181.018,281.334 180.229 C 280.118 179.923,120.289 179.938,119.133 180.245 M281.797 181.055 C 283.826 182.128,283.892 184.432,281.935 185.882 L 281.371 186.300 200.300 186.300 L 119.229 186.300 118.665 185.882 C 116.708 184.432,116.774 182.128,118.803 181.055 L 119.663 180.600 200.300 180.600 L 280.937 180.600 281.797 181.055 M292.522 196.050 C 291.998 196.521,239.303 285.117,238.453 286.957 C 237.626 288.745,236.083 287.599,255.000 299.247 C 263.305 304.361,275.081 311.620,281.169 315.379 C 295.121 323.992,294.291 323.570,295.782 322.809 C 297.204 322.084,348.495 289.576,349.050 289.048 C 349.705 288.426,349.741 287.861,349.195 286.791 C 348.885 286.183,316.543 233.005,296.737 200.537 C 293.648 195.473,293.426 195.237,292.522 196.050 M294.163 197.450 C 294.843 198.444,293.167 195.698,323.748 245.909 C 350.973 290.610,349.083 287.442,348.919 288.094 C 348.742 288.799,349.746 288.143,321.800 305.819 C 294.007 323.397,294.857 322.902,293.560 322.271 C 292.276 321.645,239.773 289.242,239.250 288.752 C 238.623 288.164,238.686 287.543,239.526 286.040 C 241.134 283.165,291.861 197.858,292.323 197.252 C 292.994 196.373,293.459 196.423,294.163 197.450 M119.800 225.786 C 116.225 226.512,115.511 230.568,118.662 232.252 L 119.500 232.700 187.600 232.700 L 255.700 232.700 256.538 232.252 C 259.206 230.826,259.206 227.574,256.538 226.148 L 255.700 225.700 188.100 225.672 C 150.920 225.657,120.185 225.708,119.800 225.786 M256.399 226.711 C 258.493 227.941,258.493 230.459,256.399 231.689 L 255.700 232.100 187.600 232.100 L 119.500 232.100 118.801 231.689 C 116.985 230.623,116.686 228.470,118.166 227.131 C 119.230 226.168,115.593 226.214,187.900 226.258 L 255.700 226.300 256.399 226.711 M119.500 272.585 C 115.887 273.462,115.716 278.277,119.266 279.171 C 120.960 279.597,227.244 279.471,228.484 279.041 C 231.275 278.073,231.607 274.562,229.050 273.059 L 228.100 272.500 174.100 272.470 C 144.400 272.453,119.830 272.505,119.500 272.585 M228.764 273.500 C 230.763 274.704,230.640 277.456,228.546 278.407 C 227.719 278.783,226.517 278.791,173.681 278.796 L 119.663 278.800 118.803 278.345 C 116.523 277.139,116.846 273.951,119.324 273.206 C 120.739 272.781,228.048 273.069,228.764 273.500 M239.600 298.932 C 239.600 299.460,240.410 300.734,244.472 306.600 C 266.930 339.032,289.740 371.810,290.164 372.259 C 290.943 373.083,291.507 372.923,292.593 371.569 C 293.507 370.429,338.493 308.978,341.969 304.121 C 344.782 300.190,345.142 299.285,343.642 299.911 C 342.583 300.354,341.100 301.280,318.400 315.674 C 307.125 322.824,297.315 328.981,296.600 329.356 C 294.358 330.534,294.731 330.684,283.700 324.152 C 279.520 321.677,268.547 315.179,259.316 309.712 C 239.647 298.063,239.600 298.037,239.600 298.932 M243.096 300.815 C 244.520 301.575,247.200 303.153,271.609 317.610 C 293.783 330.743,293.317 330.483,294.700 330.478 C 296.091 330.472,295.208 330.998,317.300 317.003 C 340.973 302.007,340.059 302.579,341.368 301.916 C 343.303 300.936,343.147 301.500,340.432 305.300 C 337.563 309.316,292.995 370.239,292.260 371.150 C 291.380 372.239,290.841 372.264,290.044 371.250 C 289.336 370.349,246.698 308.930,243.465 304.154 C 240.624 299.956,240.569 299.467,243.096 300.815 "
              stroke="none" fill="#ecf4fc" fill-rule="evenodd"></path>
        <path id="path4"
              d="M179.466 27.950 C 190.997 27.979,209.807 27.979,221.266 27.950 C 232.725 27.921,223.290 27.898,200.300 27.898 C 177.310 27.898,167.935 27.921,179.466 27.950 M157.200 28.400 C 156.980 28.620,156.801 28.957,156.803 29.150 C 156.805 29.408,156.872 29.369,157.057 29.004 C 157.195 28.731,157.531 28.395,157.804 28.257 C 158.169 28.072,158.208 28.005,157.950 28.003 C 157.758 28.001,157.420 28.180,157.200 28.400 M242.796 28.257 C 243.069 28.395,243.405 28.731,243.543 29.004 C 243.728 29.369,243.795 29.408,243.797 29.150 C 243.801 28.698,243.102 27.999,242.650 28.003 C 242.392 28.005,242.431 28.072,242.796 28.257 M156.695 45.700 C 156.695 54.500,156.720 58.071,156.750 53.635 C 156.780 49.199,156.780 41.999,156.750 37.635 C 156.720 33.271,156.695 36.900,156.695 45.700 M243.895 45.700 C 243.895 54.500,243.920 58.071,243.950 53.635 C 243.980 49.199,243.980 41.999,243.950 37.635 C 243.920 33.271,243.895 36.900,243.895 45.700 M122.865 42.350 C 127.025 42.380,133.775 42.380,137.865 42.350 C 141.954 42.320,138.550 42.295,130.300 42.295 C 122.050 42.295,118.704 42.320,122.865 42.350 M262.835 42.350 C 267.309 42.380,274.689 42.380,279.235 42.350 C 283.781 42.320,280.120 42.295,271.100 42.295 C 262.080 42.295,258.361 42.320,262.835 42.350 M113.850 42.538 C 114.043 42.588,114.358 42.588,114.550 42.538 C 114.743 42.488,114.585 42.446,114.200 42.446 C 113.815 42.446,113.658 42.488,113.850 42.538 M145.996 42.657 C 146.269 42.795,146.605 43.131,146.743 43.404 C 146.928 43.769,146.995 43.808,146.997 43.550 C 146.999 43.358,146.820 43.020,146.600 42.800 C 146.380 42.580,146.042 42.401,145.850 42.403 C 145.592 42.405,145.631 42.472,145.996 42.657 M253.400 42.800 C 253.180 43.020,253.001 43.358,253.003 43.550 C 253.005 43.808,253.072 43.769,253.257 43.404 C 253.395 43.131,253.731 42.795,254.004 42.657 C 254.369 42.472,254.408 42.405,254.150 42.403 C 253.957 42.401,253.620 42.580,253.400 42.800 M288.250 42.538 C 288.443 42.588,288.757 42.588,288.950 42.538 C 289.143 42.488,288.985 42.446,288.600 42.446 C 288.215 42.446,288.058 42.488,288.250 42.538 M291.700 43.200 C 291.920 43.295,292.235 43.372,292.400 43.372 C 292.589 43.372,292.552 43.308,292.300 43.200 C 292.080 43.105,291.765 43.028,291.600 43.028 C 291.411 43.028,291.448 43.092,291.700 43.200 M108.300 43.989 C 107.860 44.197,107.590 44.368,107.700 44.369 C 107.973 44.371,109.551 43.632,109.300 43.620 C 109.190 43.615,108.740 43.781,108.300 43.989 M294.417 44.077 C 294.620 44.264,297.400 45.595,297.400 45.505 C 297.400 45.393,294.689 44.000,294.472 44.000 C 294.396 44.000,294.371 44.034,294.417 44.077 M147.076 46.500 C 147.077 47.820,147.109 48.334,147.148 47.642 C 147.187 46.950,147.187 45.870,147.148 45.242 C 147.108 44.614,147.076 45.180,147.076 46.500 M252.876 46.500 C 252.877 47.820,252.909 48.334,252.948 47.642 C 252.987 46.950,252.987 45.870,252.948 45.242 C 252.908 44.614,252.876 45.180,252.876 46.500 M105.550 45.314 C 104.802 45.720,104.848 45.889,105.600 45.500 C 105.930 45.329,106.200 45.147,106.200 45.095 C 106.200 44.966,106.179 44.973,105.550 45.314 M297.600 45.662 C 297.600 45.709,297.983 45.999,298.450 46.307 C 298.918 46.616,299.194 46.740,299.065 46.584 C 298.817 46.284,297.600 45.518,297.600 45.662 M300.400 47.726 C 301.777 48.943,302.257 49.423,303.474 50.800 C 304.261 51.691,304.317 51.730,303.773 51.006 C 302.912 49.862,301.338 48.288,300.194 47.427 C 299.470 46.883,299.509 46.939,300.400 47.726 M100.947 48.850 C 99.300 50.455,97.673 52.482,97.054 53.700 C 96.615 54.564,96.821 54.309,98.024 52.500 C 98.610 51.620,99.931 50.068,100.961 49.050 C 101.991 48.032,102.790 47.200,102.737 47.200 C 102.684 47.200,101.879 47.943,100.947 48.850 M146.697 49.646 C 146.589 49.892,146.275 50.206,146.000 50.344 C 145.635 50.526,145.594 50.595,145.850 50.597 C 146.277 50.601,147.000 49.911,147.000 49.500 C 147.000 49.089,146.929 49.123,146.697 49.646 M253.003 49.450 C 252.999 49.902,253.698 50.601,254.150 50.597 C 254.408 50.595,254.369 50.528,254.004 50.343 C 253.731 50.205,253.395 49.869,253.257 49.596 C 253.072 49.231,253.005 49.192,253.003 49.450 M122.350 50.750 C 126.558 50.780,133.443 50.780,137.650 50.750 C 141.858 50.720,138.415 50.695,130.000 50.695 C 121.585 50.695,118.142 50.720,122.350 50.750 M263.050 50.750 C 267.643 50.780,275.158 50.780,279.750 50.750 C 284.343 50.720,280.585 50.695,271.400 50.695 C 262.215 50.695,258.458 50.720,263.050 50.750 M110.186 52.210 C 107.441 53.658,105.223 55.889,103.788 58.646 C 103.335 59.517,102.996 60.263,103.036 60.302 C 103.075 60.342,103.487 59.634,103.950 58.730 C 105.405 55.888,107.459 53.838,110.384 52.310 C 111.328 51.817,112.010 51.413,111.900 51.413 C 111.790 51.413,111.019 51.772,110.186 52.210 M291.217 51.676 C 291.421 51.862,293.400 52.796,293.400 52.707 C 293.400 52.594,291.490 51.600,291.273 51.600 C 291.196 51.600,291.171 51.634,291.217 51.676 M304.893 52.750 C 305.201 53.218,305.491 53.600,305.538 53.600 C 305.682 53.600,304.916 52.383,304.616 52.135 C 304.460 52.006,304.584 52.283,304.893 52.750 M294.100 53.232 C 294.430 53.481,295.292 54.229,296.015 54.893 L 297.330 56.100 295.891 54.671 C 295.099 53.885,294.237 53.137,293.976 53.010 C 293.628 52.840,293.661 52.900,294.100 53.232 M306.242 55.094 C 306.592 55.805,306.913 56.354,306.953 56.314 C 307.042 56.224,305.833 53.800,305.699 53.800 C 305.647 53.800,305.891 54.382,306.242 55.094 M96.290 55.019 C 96.114 55.359,96.006 55.673,96.049 55.716 C 96.093 55.759,96.278 55.481,96.461 55.097 C 96.872 54.235,96.730 54.169,96.290 55.019 M298.016 57.364 C 298.370 57.934,298.697 58.400,298.743 58.400 C 298.886 58.400,297.926 56.788,297.642 56.552 C 297.493 56.428,297.661 56.794,298.016 57.364 M307.828 59.000 C 307.828 59.165,307.905 59.480,308.000 59.700 C 308.108 59.952,308.172 59.989,308.172 59.800 C 308.172 59.635,308.095 59.320,308.000 59.100 C 307.892 58.848,307.828 58.811,307.828 59.000 M299.009 59.024 C 299.004 59.093,299.226 59.633,299.503 60.224 C 299.780 60.816,299.948 61.075,299.878 60.800 C 299.744 60.278,299.024 58.808,299.009 59.024 M94.046 62.600 C 94.046 62.985,94.088 63.142,94.138 62.950 C 94.188 62.758,94.188 62.442,94.138 62.250 C 94.088 62.058,94.046 62.215,94.046 62.600 M156.803 62.250 C 156.799 62.702,157.498 63.401,157.950 63.397 C 158.208 63.395,158.169 63.328,157.804 63.143 C 157.531 63.005,157.195 62.669,157.057 62.396 C 156.872 62.031,156.805 61.992,156.803 62.250 M243.497 62.446 C 243.389 62.692,243.075 63.006,242.800 63.144 C 242.435 63.326,242.394 63.395,242.650 63.397 C 243.077 63.401,243.800 62.711,243.800 62.300 C 243.800 61.889,243.729 61.923,243.497 62.446 M308.646 63.000 C 308.646 63.385,308.688 63.542,308.738 63.350 C 308.788 63.158,308.788 62.843,308.738 62.650 C 308.688 62.458,308.646 62.615,308.646 63.000 M102.299 183.500 C 102.299 249.720,102.322 276.840,102.350 243.766 C 102.378 210.693,102.378 156.513,102.350 123.366 C 102.322 90.220,102.299 117.280,102.299 183.500 M179.466 63.550 C 190.997 63.579,209.807 63.579,221.266 63.550 C 232.725 63.521,223.290 63.498,200.300 63.498 C 177.310 63.498,167.935 63.521,179.466 63.550 M300.499 130.000 C 300.499 166.575,300.522 181.537,300.550 163.250 C 300.578 144.962,300.578 115.037,300.550 96.750 C 300.522 78.462,300.499 93.425,300.499 130.000 M93.899 183.500 C 93.899 249.390,93.922 276.315,93.950 243.334 C 93.978 210.352,93.978 156.442,93.950 123.534 C 93.922 90.625,93.899 117.610,93.899 183.500 M308.899 130.300 C 308.899 166.600,308.922 181.480,308.950 163.366 C 308.978 145.253,308.978 115.553,308.950 97.366 C 308.922 79.180,308.899 94.000,308.899 130.300 M309.699 130.600 C 309.699 166.405,309.722 181.053,309.750 163.150 C 309.778 145.248,309.778 115.953,309.750 98.050 C 309.722 80.148,309.699 94.795,309.699 130.600 M160.234 84.550 C 182.197 84.578,218.197 84.578,240.234 84.550 C 262.270 84.522,244.300 84.499,200.300 84.499 C 156.300 84.499,138.270 84.522,160.234 84.550 M118.800 84.809 C 118.581 84.957,118.662 84.976,119.100 84.878 C 119.835 84.713,119.995 84.599,119.483 84.603 C 119.272 84.605,118.965 84.697,118.800 84.809 M280.817 84.672 C 280.863 84.711,281.170 84.804,281.500 84.878 C 281.938 84.976,282.019 84.957,281.800 84.809 C 281.530 84.626,280.616 84.499,280.817 84.672 M117.861 85.300 C 117.361 85.650,116.597 86.824,116.608 87.224 C 116.612 87.376,116.746 87.200,116.906 86.832 C 117.065 86.465,117.476 85.903,117.819 85.582 C 118.505 84.942,118.520 84.838,117.861 85.300 M282.752 85.551 C 283.111 85.889,283.535 86.465,283.694 86.832 C 283.854 87.200,283.988 87.363,283.992 87.196 C 284.003 86.758,283.069 85.450,282.546 85.174 C 282.241 85.013,282.306 85.132,282.752 85.551 M116.800 89.503 C 116.800 89.951,118.402 91.397,118.900 91.398 C 119.010 91.398,118.826 91.232,118.491 91.027 C 118.157 90.823,117.639 90.367,117.341 90.013 C 117.044 89.659,116.800 89.430,116.800 89.503 M283.214 90.051 C 282.947 90.380,282.452 90.818,282.114 91.024 C 281.777 91.230,281.590 91.398,281.700 91.398 C 282.195 91.397,284.025 89.735,283.773 89.516 C 283.733 89.481,283.482 89.722,283.214 90.051 M160.466 91.750 C 182.448 91.778,218.358 91.778,240.266 91.750 C 262.175 91.722,244.190 91.699,200.300 91.699 C 156.410 91.699,138.485 91.722,160.466 91.750 M160.966 92.550 C 182.673 92.578,218.133 92.578,239.766 92.550 C 261.400 92.522,243.640 92.499,200.300 92.499 C 156.960 92.499,139.260 92.522,160.966 92.550 M160.966 131.750 C 182.673 131.778,218.133 131.778,239.766 131.750 C 261.400 131.722,243.640 131.699,200.300 131.699 C 156.960 131.699,139.260 131.722,160.966 131.750 M160.466 132.550 C 182.448 132.578,218.358 132.578,240.266 132.550 C 262.175 132.522,244.190 132.499,200.300 132.499 C 156.410 132.499,138.485 132.522,160.466 132.550 M118.165 133.156 C 117.629 133.509,116.800 134.445,116.800 134.697 C 116.800 134.770,117.044 134.541,117.341 134.187 C 117.639 133.833,118.157 133.377,118.491 133.173 C 118.826 132.968,119.010 132.802,118.900 132.802 C 118.790 132.802,118.459 132.962,118.165 133.156 M282.109 133.173 C 282.443 133.377,282.961 133.833,283.259 134.187 C 283.890 134.938,283.996 134.812,283.385 134.036 C 282.941 133.472,282.028 132.803,281.700 132.802 C 281.590 132.802,281.774 132.968,282.109 133.173 M116.608 137.004 C 116.597 137.442,117.531 138.750,118.054 139.026 C 118.359 139.187,118.294 139.068,117.848 138.649 C 117.489 138.311,117.065 137.735,116.906 137.368 C 116.746 137.000,116.612 136.837,116.608 137.004 M283.731 137.248 C 283.656 137.547,283.267 138.119,282.868 138.519 C 282.423 138.964,282.309 139.156,282.573 139.014 C 283.116 138.724,284.069 137.307,283.954 136.961 C 283.906 136.819,283.806 136.948,283.731 137.248 M118.800 139.391 C 118.965 139.503,119.272 139.595,119.483 139.597 C 119.995 139.601,119.835 139.487,119.100 139.322 C 118.662 139.224,118.581 139.243,118.800 139.391 M281.200 139.400 C 280.788 139.532,280.770 139.563,281.100 139.577 C 281.320 139.586,281.635 139.507,281.800 139.400 C 282.150 139.174,281.907 139.174,281.200 139.400 M160.234 139.750 C 182.197 139.778,218.197 139.778,240.234 139.750 C 262.270 139.722,244.300 139.699,200.300 139.699 C 156.300 139.699,138.270 139.722,160.234 139.750 M160.234 179.950 C 182.197 179.978,218.197 179.978,240.234 179.950 C 262.270 179.922,244.300 179.899,200.300 179.899 C 156.300 179.899,138.270 179.922,160.234 179.950 M118.800 180.209 C 118.581 180.357,118.662 180.376,119.100 180.278 C 119.835 180.113,119.995 179.999,119.483 180.003 C 119.272 180.005,118.965 180.097,118.800 180.209 M280.817 180.072 C 280.863 180.111,281.170 180.204,281.500 180.278 C 281.938 180.376,282.019 180.357,281.800 180.209 C 281.530 180.026,280.616 179.899,280.817 180.072 M117.861 180.700 C 117.361 181.050,116.597 182.224,116.608 182.624 C 116.612 182.776,116.746 182.600,116.906 182.232 C 117.065 181.865,117.476 181.303,117.819 180.982 C 118.505 180.342,118.520 180.238,117.861 180.700 M282.752 180.951 C 283.111 181.289,283.535 181.865,283.694 182.232 C 283.854 182.600,283.988 182.763,283.992 182.596 C 284.003 182.158,283.069 180.850,282.546 180.574 C 282.241 180.413,282.306 180.532,282.752 180.951 M116.800 184.903 C 116.800 185.351,118.402 186.797,118.900 186.798 C 119.010 186.798,118.826 186.632,118.491 186.427 C 118.157 186.223,117.639 185.767,117.341 185.413 C 117.044 185.059,116.800 184.830,116.800 184.903 M283.214 185.451 C 282.947 185.780,282.452 186.218,282.114 186.424 C 281.777 186.630,281.590 186.798,281.700 186.798 C 282.195 186.797,284.025 185.135,283.773 184.916 C 283.733 184.881,283.482 185.122,283.214 185.451 M160.466 187.150 C 182.448 187.178,218.358 187.178,240.266 187.150 C 262.175 187.122,244.190 187.099,200.300 187.099 C 156.410 187.099,138.485 187.122,160.466 187.150 M160.966 187.950 C 182.673 187.978,218.133 187.978,239.766 187.950 C 261.400 187.922,243.640 187.899,200.300 187.899 C 156.960 187.899,139.260 187.922,160.966 187.950 M292.385 195.938 L 291.900 196.475 292.477 196.038 C 293.216 195.477,293.231 195.479,294.003 196.250 C 294.616 196.863,294.633 196.868,294.298 196.342 C 293.633 195.296,293.071 195.177,292.385 195.938 M300.616 196.850 C 300.595 197.302,301.298 198.005,301.750 197.984 C 301.975 197.974,301.908 197.898,301.563 197.772 C 301.266 197.663,300.937 197.334,300.828 197.038 C 300.702 196.692,300.626 196.625,300.616 196.850 M308.497 197.046 C 308.389 197.292,308.075 197.606,307.800 197.744 C 307.435 197.926,307.394 197.995,307.650 197.997 C 308.077 198.001,308.800 197.311,308.800 196.900 C 308.800 196.489,308.729 196.523,308.497 197.046 M295.041 197.717 C 295.294 198.166,295.661 198.751,295.859 199.017 C 296.056 199.283,296.011 199.132,295.759 198.683 C 295.506 198.234,295.139 197.649,294.941 197.383 C 294.744 197.117,294.789 197.268,295.041 197.717 M303.350 198.148 C 304.038 198.187,305.163 198.187,305.850 198.148 C 306.538 198.109,305.975 198.077,304.600 198.077 C 303.225 198.077,302.663 198.109,303.350 198.148 M289.396 200.650 C 287.651 203.589,287.756 203.400,287.862 203.400 C 287.910 203.400,288.603 202.298,289.404 200.950 C 291.149 198.011,291.044 198.200,290.938 198.200 C 290.890 198.200,290.197 199.303,289.396 200.650 M303.650 198.947 C 304.173 198.988,305.028 198.988,305.550 198.947 C 306.072 198.906,305.645 198.872,304.600 198.872 C 303.555 198.872,303.127 198.906,303.650 198.947 M297.241 201.317 C 297.494 201.766,297.861 202.351,298.059 202.617 C 298.256 202.883,298.211 202.732,297.959 202.283 C 297.706 201.834,297.339 201.249,297.141 200.983 C 296.944 200.717,296.989 200.868,297.241 201.317 M299.241 204.650 C 299.399 204.898,300.000 205.888,300.577 206.850 C 301.155 207.813,301.676 208.600,301.736 208.600 C 301.797 208.600,301.717 208.398,301.559 208.150 C 301.401 207.903,300.800 206.913,300.223 205.950 C 299.645 204.988,299.124 204.200,299.064 204.200 C 299.003 204.200,299.083 204.403,299.241 204.650 M285.596 207.050 C 283.851 209.989,283.956 209.800,284.062 209.800 C 284.110 209.800,284.803 208.697,285.604 207.350 C 287.349 204.411,287.244 204.600,287.138 204.600 C 287.090 204.600,286.397 205.703,285.596 207.050 M302.640 210.250 C 302.798 210.498,303.265 211.263,303.678 211.950 C 304.091 212.638,304.478 213.200,304.537 213.200 C 304.597 213.200,304.517 212.998,304.360 212.750 C 304.202 212.503,303.735 211.738,303.322 211.050 C 302.909 210.363,302.522 209.800,302.463 209.800 C 302.403 209.800,302.483 210.003,302.640 210.250 M281.497 213.950 C 279.518 217.275,279.458 217.384,279.741 217.100 C 279.851 216.990,280.689 215.640,281.602 214.100 C 283.555 210.805,283.446 211.000,283.338 211.000 C 283.291 211.000,282.463 212.328,281.497 213.950 M305.440 214.850 C 305.598 215.097,306.065 215.863,306.478 216.550 C 306.891 217.238,307.278 217.800,307.337 217.800 C 307.397 217.800,307.317 217.597,307.160 217.350 C 307.002 217.103,306.535 216.338,306.122 215.650 C 305.709 214.963,305.322 214.400,305.263 214.400 C 305.203 214.400,305.283 214.603,305.440 214.850 M277.396 220.850 C 275.651 223.789,275.756 223.600,275.862 223.600 C 275.910 223.600,276.603 222.498,277.404 221.150 C 279.149 218.211,279.044 218.400,278.938 218.400 C 278.890 218.400,278.197 219.503,277.396 220.850 M308.441 219.717 C 308.694 220.166,309.061 220.751,309.259 221.017 C 309.456 221.283,309.411 221.132,309.159 220.683 C 308.906 220.234,308.539 219.649,308.341 219.383 C 308.144 219.117,308.189 219.268,308.441 219.717 M310.440 223.050 C 310.598 223.298,311.065 224.063,311.478 224.750 C 311.891 225.438,312.278 226.000,312.337 226.000 C 312.397 226.000,312.317 225.798,312.160 225.550 C 312.002 225.303,311.535 224.538,311.122 223.850 C 310.709 223.163,310.322 222.600,310.263 222.600 C 310.203 222.600,310.283 222.803,310.440 223.050 M273.596 227.250 C 271.851 230.189,271.956 230.000,272.062 230.000 C 272.110 230.000,272.803 228.898,273.604 227.550 C 275.349 224.611,275.244 224.800,275.138 224.800 C 275.090 224.800,274.397 225.903,273.596 227.250 M154.150 225.550 C 172.547 225.578,202.652 225.578,221.050 225.550 C 239.447 225.522,224.395 225.499,187.600 225.499 C 150.805 225.499,135.752 225.522,154.150 225.550 M118.500 226.033 C 117.906 226.362,117.190 227.046,116.965 227.500 C 116.857 227.720,117.008 227.606,117.302 227.246 C 117.596 226.886,118.165 226.417,118.568 226.204 C 118.971 225.992,119.210 225.816,119.100 225.815 C 118.990 225.813,118.720 225.912,118.500 226.033 M256.632 226.204 C 257.035 226.417,257.604 226.886,257.898 227.246 C 258.192 227.606,258.343 227.720,258.235 227.500 C 257.897 226.818,256.566 225.782,256.063 225.809 C 255.973 225.814,256.229 225.992,256.632 226.204 M313.240 227.650 C 313.398 227.898,313.865 228.663,314.278 229.350 C 314.691 230.038,315.078 230.600,315.137 230.600 C 315.197 230.600,315.117 230.398,314.960 230.150 C 314.802 229.903,314.335 229.138,313.922 228.450 C 313.509 227.763,313.122 227.200,313.063 227.200 C 313.003 227.200,313.083 227.403,313.240 227.650 M116.961 230.900 C 117.320 231.609,118.876 232.791,119.124 232.543 C 119.173 232.494,118.936 232.339,118.598 232.199 C 118.260 232.059,117.708 231.620,117.371 231.222 C 117.034 230.825,116.850 230.680,116.961 230.900 M257.834 231.197 C 257.591 231.526,257.056 231.972,256.646 232.188 C 256.236 232.405,255.973 232.586,256.063 232.591 C 256.539 232.617,257.872 231.605,258.225 230.950 C 258.515 230.413,258.325 230.533,257.834 231.197 M269.796 233.650 C 268.051 236.589,268.156 236.400,268.262 236.400 C 268.310 236.400,269.003 235.298,269.804 233.950 C 271.549 231.011,271.444 231.200,271.338 231.200 C 271.290 231.200,270.597 232.303,269.796 233.650 M316.040 232.250 C 316.198 232.498,316.665 233.263,317.078 233.950 C 317.491 234.638,317.878 235.200,317.937 235.200 C 317.997 235.200,317.917 234.998,317.760 234.750 C 317.602 234.503,317.135 233.738,316.722 233.050 C 316.309 232.363,315.922 231.800,315.863 231.800 C 315.803 231.800,315.883 232.003,316.040 232.250 M154.150 232.950 C 172.547 232.978,202.652 232.978,221.050 232.950 C 239.447 232.922,224.395 232.899,187.600 232.899 C 150.805 232.899,135.752 232.922,154.150 232.950 M319.041 237.117 C 319.294 237.566,319.661 238.151,319.859 238.417 C 320.056 238.683,320.011 238.532,319.759 238.083 C 319.506 237.634,319.139 237.049,318.941 236.783 C 318.744 236.517,318.789 236.668,319.041 237.117 M265.996 240.050 C 264.251 242.989,264.356 242.800,264.462 242.800 C 264.510 242.800,265.203 241.697,266.004 240.350 C 267.749 237.411,267.644 237.600,267.538 237.600 C 267.490 237.600,266.797 238.703,265.996 240.050 M321.040 240.450 C 321.198 240.697,321.665 241.463,322.078 242.150 C 322.491 242.838,322.878 243.400,322.937 243.400 C 322.997 243.400,322.917 243.197,322.760 242.950 C 322.602 242.703,322.135 241.938,321.722 241.250 C 321.309 240.563,320.922 240.000,320.863 240.000 C 320.803 240.000,320.883 240.203,321.040 240.450 M262.196 246.450 C 260.451 249.389,260.556 249.200,260.662 249.200 C 260.710 249.200,261.403 248.097,262.204 246.750 C 263.949 243.811,263.844 244.000,263.738 244.000 C 263.690 244.000,262.997 245.103,262.196 246.450 M323.840 245.050 C 323.998 245.298,324.465 246.063,324.878 246.750 C 325.291 247.438,325.678 248.000,325.737 248.000 C 325.797 248.000,325.717 247.798,325.560 247.550 C 325.402 247.303,324.935 246.538,324.522 245.850 C 324.109 245.163,323.722 244.600,323.663 244.600 C 323.603 244.600,323.683 244.803,323.840 245.050 M326.640 249.650 C 326.798 249.898,327.265 250.663,327.678 251.350 C 328.091 252.038,328.478 252.600,328.537 252.600 C 328.597 252.600,328.517 252.398,328.360 252.150 C 328.202 251.903,327.735 251.138,327.322 250.450 C 326.909 249.763,326.522 249.200,326.463 249.200 C 326.403 249.200,326.483 249.403,326.640 249.650 M258.396 252.850 C 256.651 255.789,256.756 255.600,256.862 255.600 C 256.910 255.600,257.603 254.498,258.404 253.150 C 260.149 250.211,260.044 250.400,259.938 250.400 C 259.890 250.400,259.197 251.503,258.396 252.850 M329.440 254.250 C 329.598 254.498,330.065 255.263,330.478 255.950 C 330.891 256.637,331.278 257.200,331.337 257.200 C 331.397 257.200,331.317 256.998,331.160 256.750 C 331.002 256.502,330.535 255.738,330.122 255.050 C 329.709 254.363,329.322 253.800,329.263 253.800 C 329.203 253.800,329.283 254.003,329.440 254.250 M254.297 259.750 C 252.318 263.075,252.258 263.184,252.541 262.900 C 252.651 262.790,253.489 261.440,254.402 259.900 C 256.355 256.605,256.246 256.800,256.138 256.800 C 256.091 256.800,255.263 258.127,254.297 259.750 M332.441 259.117 C 332.694 259.566,333.061 260.151,333.259 260.417 C 333.456 260.683,333.411 260.532,333.159 260.083 C 332.906 259.634,332.539 259.049,332.341 258.783 C 332.144 258.517,332.189 258.668,332.441 259.117 M334.440 262.450 C 334.598 262.697,335.065 263.463,335.478 264.150 C 335.891 264.838,336.278 265.400,336.337 265.400 C 336.397 265.400,336.317 265.197,336.160 264.950 C 336.002 264.703,335.535 263.938,335.122 263.250 C 334.709 262.563,334.322 262.000,334.263 262.000 C 334.203 262.000,334.283 262.203,334.440 262.450 M250.196 266.650 C 248.451 269.589,248.556 269.400,248.662 269.400 C 248.710 269.400,249.403 268.298,250.204 266.950 C 251.949 264.011,251.844 264.200,251.738 264.200 C 251.690 264.200,250.997 265.303,250.196 266.650 M337.240 267.050 C 337.398 267.298,337.865 268.063,338.278 268.750 C 338.691 269.438,339.078 270.000,339.137 270.000 C 339.197 270.000,339.117 269.798,338.960 269.550 C 338.802 269.303,338.335 268.538,337.922 267.850 C 337.509 267.163,337.122 266.600,337.063 266.600 C 337.003 266.600,337.083 266.803,337.240 267.050 M246.396 273.050 C 244.651 275.989,244.756 275.800,244.862 275.800 C 244.910 275.800,245.603 274.697,246.404 273.350 C 248.149 270.411,248.044 270.600,247.938 270.600 C 247.890 270.600,247.197 271.703,246.396 273.050 M340.040 271.650 C 340.198 271.897,340.665 272.663,341.078 273.350 C 341.491 274.038,341.878 274.600,341.937 274.600 C 341.997 274.600,341.917 274.397,341.760 274.150 C 341.602 273.903,341.135 273.137,340.722 272.450 C 340.309 271.762,339.922 271.200,339.863 271.200 C 339.803 271.200,339.883 271.403,340.040 271.650 M147.650 271.550 C 162.033 271.578,185.568 271.578,199.950 271.550 C 214.332 271.522,202.565 271.499,173.800 271.499 C 145.035 271.499,133.268 271.522,147.650 271.550 M147.150 272.350 C 161.807 272.378,185.792 272.378,200.450 272.350 C 215.107 272.322,203.115 272.299,173.800 272.299 C 144.485 272.299,132.493 272.322,147.150 272.350 M118.165 272.956 C 117.629 273.309,116.800 274.245,116.800 274.497 C 116.800 274.570,117.044 274.341,117.341 273.987 C 117.639 273.633,118.157 273.177,118.491 272.973 C 118.826 272.768,119.010 272.602,118.900 272.602 C 118.790 272.602,118.459 272.762,118.165 272.956 M229.225 273.173 C 229.753 273.508,230.238 274.010,230.392 274.380 C 230.536 274.728,230.693 274.973,230.742 274.925 C 231.086 274.581,229.188 272.600,228.514 272.600 C 228.408 272.600,228.728 272.858,229.225 273.173 M230.850 275.900 C 230.853 276.340,230.894 276.496,230.941 276.248 C 230.989 275.999,230.987 275.639,230.937 275.448 C 230.887 275.256,230.848 275.460,230.850 275.900 M343.041 276.517 C 343.294 276.966,343.661 277.551,343.859 277.817 C 344.056 278.083,344.011 277.932,343.759 277.483 C 343.506 277.034,343.139 276.449,342.941 276.183 C 342.744 275.917,342.789 276.068,343.041 276.517 M116.608 276.804 C 116.597 277.242,117.531 278.550,118.054 278.826 C 118.359 278.987,118.294 278.868,117.848 278.449 C 117.489 278.111,117.065 277.535,116.906 277.168 C 116.746 276.800,116.612 276.637,116.608 276.804 M242.596 279.450 C 240.851 282.389,240.956 282.200,241.062 282.200 C 241.110 282.200,241.803 281.098,242.604 279.750 C 244.349 276.811,244.244 277.000,244.138 277.000 C 244.090 277.000,243.397 278.103,242.596 279.450 M229.913 278.150 C 229.481 278.702,229.446 278.795,229.782 278.502 C 230.183 278.152,230.712 277.400,230.557 277.400 C 230.526 277.400,230.236 277.738,229.913 278.150 M118.800 279.191 C 118.965 279.303,119.272 279.395,119.483 279.397 C 119.995 279.401,119.835 279.287,119.100 279.122 C 118.662 279.024,118.581 279.043,118.800 279.191 M228.000 279.200 C 227.588 279.332,227.570 279.363,227.900 279.377 C 228.120 279.386,228.435 279.307,228.600 279.200 C 228.950 278.974,228.707 278.974,228.000 279.200 M147.066 279.550 C 161.787 279.578,185.817 279.578,200.466 279.550 C 215.115 279.522,203.070 279.499,173.700 279.499 C 144.330 279.499,132.345 279.522,147.066 279.550 M345.040 279.850 C 345.198 280.098,345.665 280.863,346.078 281.550 C 346.491 282.238,346.878 282.800,346.937 282.800 C 346.997 282.800,346.917 282.598,346.760 282.350 C 346.602 282.103,346.135 281.338,345.722 280.650 C 345.309 279.963,344.922 279.400,344.863 279.400 C 344.803 279.400,344.883 279.603,345.040 279.850 M240.140 283.550 C 240.095 283.632,239.804 284.150,239.496 284.700 C 239.187 285.250,239.027 285.610,239.140 285.500 C 239.430 285.219,240.461 283.400,240.331 283.400 C 240.272 283.400,240.186 283.468,240.140 283.550 M348.015 284.700 C 348.262 285.140,348.550 285.590,348.655 285.700 C 348.954 286.014,348.269 284.747,347.898 284.300 C 347.715 284.080,347.768 284.260,348.015 284.700 M238.392 286.615 C 238.164 287.063,238.004 287.504,238.038 287.594 C 238.072 287.685,238.297 287.318,238.537 286.780 C 239.067 285.593,238.970 285.483,238.392 286.615 M349.196 286.792 C 349.911 288.193,349.704 288.676,347.795 290.059 C 347.319 290.404,347.325 290.404,347.963 290.059 C 348.967 289.515,349.800 288.613,349.800 288.068 C 349.800 287.602,349.097 286.000,348.892 286.000 C 348.837 286.000,348.974 286.356,349.196 286.792 M238.006 288.360 C 237.999 288.651,238.889 289.533,239.500 289.840 C 239.720 289.951,239.564 289.757,239.153 289.409 C 238.743 289.061,238.318 288.624,238.209 288.438 C 238.086 288.226,238.010 288.197,238.006 288.360 M240.300 290.304 C 240.520 290.483,240.880 290.718,241.100 290.826 L 241.500 291.022 241.100 290.696 C 240.880 290.517,240.520 290.282,240.300 290.174 L 239.900 289.978 240.300 290.304 M345.850 291.223 C 345.168 291.660,344.948 291.953,345.550 291.622 C 346.009 291.369,346.728 290.814,346.600 290.810 C 346.545 290.808,346.207 290.994,345.850 291.223 M241.900 291.304 C 242.120 291.483,242.480 291.718,242.700 291.826 L 243.100 292.022 242.700 291.696 C 242.480 291.517,242.120 291.282,241.900 291.174 L 241.500 290.978 241.900 291.304 M344.096 292.328 C 343.076 293.005,342.716 293.362,343.513 292.907 C 344.215 292.507,345.151 291.811,344.996 291.804 C 344.939 291.802,344.534 292.038,344.096 292.328 M243.583 292.341 C 243.849 292.539,244.434 292.906,244.883 293.159 C 245.332 293.411,245.483 293.456,245.217 293.259 C 244.951 293.061,244.366 292.694,243.917 292.441 C 243.468 292.189,243.317 292.144,243.583 292.341 M342.050 293.623 C 341.368 294.060,341.148 294.353,341.750 294.022 C 342.209 293.769,342.928 293.214,342.800 293.210 C 342.745 293.208,342.408 293.394,342.050 293.623 M246.183 293.941 C 246.449 294.139,247.034 294.506,247.483 294.759 C 247.932 295.011,248.083 295.056,247.817 294.859 C 247.551 294.661,246.966 294.294,246.517 294.041 C 246.068 293.789,245.917 293.744,246.183 293.941 M340.296 294.728 C 339.276 295.405,338.916 295.762,339.713 295.307 C 340.415 294.907,341.351 294.211,341.196 294.204 C 341.139 294.202,340.734 294.438,340.296 294.728 M248.783 295.541 C 249.049 295.739,249.634 296.106,250.083 296.359 C 250.532 296.611,250.683 296.656,250.417 296.459 C 250.151 296.261,249.566 295.894,249.117 295.641 C 248.668 295.389,248.517 295.344,248.783 295.541 M338.096 296.128 C 337.076 296.805,336.716 297.162,337.513 296.707 C 338.215 296.307,339.151 295.611,338.996 295.604 C 338.939 295.602,338.534 295.838,338.096 296.128 M251.383 297.141 C 251.649 297.339,252.234 297.706,252.683 297.959 C 253.132 298.211,253.283 298.256,253.017 298.059 C 252.751 297.861,252.166 297.494,251.717 297.241 C 251.268 296.989,251.117 296.944,251.383 297.141 M336.050 297.423 C 335.368 297.860,335.148 298.153,335.750 297.822 C 336.209 297.569,336.928 297.014,336.800 297.010 C 336.745 297.008,336.408 297.194,336.050 297.423 M334.296 298.528 C 333.276 299.205,332.916 299.562,333.713 299.107 C 334.415 298.707,335.351 298.011,335.196 298.004 C 335.139 298.002,334.734 298.238,334.296 298.528 M239.200 298.531 C 239.200 298.904,240.504 301.317,240.807 301.504 C 240.915 301.571,240.688 301.102,240.302 300.463 C 239.117 298.498,239.390 298.186,241.406 299.203 C 242.063 299.534,242.600 299.761,242.600 299.705 C 242.600 299.543,239.839 298.200,239.505 298.200 C 239.337 298.200,239.200 298.349,239.200 298.531 M253.983 298.741 C 254.249 298.939,254.834 299.306,255.283 299.559 C 255.732 299.811,255.883 299.856,255.617 299.659 C 255.351 299.461,254.766 299.094,254.317 298.841 C 253.868 298.589,253.717 298.544,253.983 298.741 M343.091 299.974 C 341.361 300.917,339.000 302.399,339.000 302.541 C 339.000 302.599,339.222 302.500,339.494 302.323 C 344.878 298.794,345.610 298.915,342.852 302.876 C 342.249 303.742,341.852 304.391,341.972 304.318 C 342.383 304.063,345.000 299.977,345.000 299.589 C 345.000 299.039,344.692 299.101,343.091 299.974 M332.250 299.823 C 331.568 300.260,331.348 300.553,331.950 300.222 C 332.409 299.969,333.128 299.414,333.000 299.410 C 332.945 299.408,332.608 299.594,332.250 299.823 M256.500 300.304 C 256.720 300.483,257.080 300.718,257.300 300.826 L 257.700 301.022 257.300 300.696 C 257.080 300.517,256.720 300.282,256.500 300.174 L 256.100 299.978 256.500 300.304 M243.800 300.490 C 243.800 300.545,244.070 300.729,244.400 300.900 C 244.730 301.071,245.000 301.165,245.000 301.110 C 245.000 301.055,244.730 300.871,244.400 300.700 C 244.070 300.529,243.800 300.435,243.800 300.490 M330.496 300.928 C 329.476 301.605,329.116 301.962,329.913 301.507 C 330.615 301.107,331.551 300.411,331.396 300.404 C 331.339 300.402,330.934 300.638,330.496 300.928 M258.183 301.341 C 258.449 301.539,259.034 301.906,259.483 302.159 C 259.932 302.411,260.083 302.456,259.817 302.259 C 259.551 302.061,258.966 301.694,258.517 301.441 C 258.068 301.189,257.917 301.144,258.183 301.341 M246.200 301.865 C 246.200 301.914,246.853 302.338,247.650 302.806 C 249.489 303.887,249.400 303.839,249.400 303.735 C 249.400 303.686,248.748 303.262,247.950 302.794 C 246.111 301.713,246.200 301.761,246.200 301.865 M328.450 302.223 C 327.768 302.660,327.548 302.953,328.150 302.622 C 328.609 302.369,329.328 301.814,329.200 301.810 C 329.145 301.808,328.808 301.994,328.450 302.223 M242.400 303.900 C 242.957 304.725,243.457 305.400,243.512 305.400 C 243.567 305.400,243.157 304.725,242.600 303.900 C 242.043 303.075,241.543 302.400,241.488 302.400 C 241.433 302.400,241.843 303.075,242.400 303.900 M260.783 302.941 C 261.049 303.139,261.634 303.506,262.083 303.759 C 262.532 304.011,262.683 304.056,262.417 303.859 C 262.151 303.661,261.566 303.294,261.117 303.041 C 260.668 302.789,260.517 302.744,260.783 302.941 M338.050 303.023 C 337.368 303.460,337.148 303.753,337.750 303.422 C 338.209 303.169,338.928 302.614,338.800 302.610 C 338.745 302.608,338.408 302.794,338.050 303.023 M326.696 303.328 C 325.676 304.005,325.316 304.362,326.113 303.907 C 326.815 303.507,327.751 302.811,327.596 302.804 C 327.539 302.802,327.134 303.038,326.696 303.328 M336.450 304.023 C 335.768 304.460,335.548 304.753,336.150 304.422 C 336.609 304.169,337.328 303.614,337.200 303.610 C 337.145 303.608,336.808 303.794,336.450 304.023 M94.046 304.400 C 94.046 304.785,94.088 304.943,94.138 304.750 C 94.188 304.558,94.188 304.243,94.138 304.050 C 94.088 303.858,94.046 304.015,94.046 304.400 M263.383 304.541 C 263.649 304.739,264.234 305.106,264.683 305.359 C 265.132 305.611,265.283 305.656,265.017 305.459 C 264.751 305.261,264.166 304.894,263.717 304.641 C 263.268 304.389,263.117 304.344,263.383 304.541 M324.496 304.728 C 323.476 305.405,323.116 305.762,323.913 305.307 C 324.615 304.907,325.551 304.211,325.396 304.204 C 325.339 304.202,324.934 304.438,324.496 304.728 M250.600 304.464 C 250.600 304.511,251.478 305.070,252.550 305.705 C 254.937 307.117,254.800 307.042,254.800 306.936 C 254.800 306.889,253.923 306.330,252.850 305.695 C 250.463 304.283,250.600 304.358,250.600 304.464 M341.458 304.850 C 340.590 305.983,340.133 306.660,340.304 306.556 C 340.541 306.414,341.869 304.600,341.737 304.600 C 341.689 304.600,341.563 304.713,341.458 304.850 M334.250 305.423 C 333.568 305.860,333.348 306.153,333.950 305.822 C 334.409 305.569,335.128 305.014,335.000 305.010 C 334.945 305.008,334.608 305.194,334.250 305.423 M244.200 306.500 C 244.541 306.995,244.864 307.400,244.919 307.400 C 244.974 307.400,244.741 306.995,244.400 306.500 C 244.059 306.005,243.736 305.600,243.681 305.600 C 243.626 305.600,243.859 306.005,244.200 306.500 M322.450 306.023 C 321.768 306.460,321.548 306.753,322.150 306.422 C 322.609 306.169,323.328 305.614,323.200 305.610 C 323.145 305.608,322.808 305.794,322.450 306.023 M265.983 306.141 C 266.249 306.339,266.834 306.706,267.283 306.959 C 267.732 307.211,267.883 307.256,267.617 307.059 C 267.351 306.861,266.766 306.494,266.317 306.241 C 265.868 305.989,265.717 305.944,265.983 306.141 M332.496 306.528 C 331.476 307.205,331.116 307.562,331.913 307.107 C 332.615 306.707,333.551 306.011,333.396 306.004 C 333.339 306.002,332.934 306.238,332.496 306.528 M103.017 306.500 C 103.017 306.610,103.189 307.015,103.400 307.400 C 103.611 307.785,103.783 308.010,103.783 307.900 C 103.783 307.790,103.611 307.385,103.400 307.000 C 103.189 306.615,103.017 306.390,103.017 306.500 M320.696 307.128 C 319.676 307.805,319.316 308.162,320.113 307.707 C 320.815 307.307,321.751 306.611,321.596 306.604 C 321.539 306.602,321.134 306.838,320.696 307.128 M339.858 307.050 C 338.990 308.183,338.533 308.860,338.704 308.756 C 338.941 308.614,340.269 306.800,340.137 306.800 C 340.089 306.800,339.963 306.913,339.858 307.050 M94.615 307.314 C 94.594 307.616,95.229 309.438,95.322 309.345 C 95.364 309.303,95.226 308.780,95.014 308.184 C 94.802 307.588,94.623 307.196,94.615 307.314 M268.583 307.741 C 268.849 307.939,269.434 308.306,269.883 308.559 C 270.332 308.811,270.483 308.856,270.217 308.659 C 269.951 308.461,269.366 308.094,268.917 307.841 C 268.468 307.589,268.317 307.544,268.583 307.741 M330.296 307.928 C 329.276 308.605,328.916 308.962,329.713 308.507 C 330.415 308.107,331.351 307.411,331.196 307.404 C 331.139 307.402,330.734 307.638,330.296 307.928 M245.800 308.800 C 246.248 309.460,246.660 310.000,246.715 310.000 C 246.770 310.000,246.448 309.460,246.000 308.800 C 245.552 308.140,245.140 307.600,245.085 307.600 C 245.030 307.600,245.352 308.140,245.800 308.800 M256.000 307.665 C 256.000 307.714,256.653 308.138,257.450 308.606 C 259.289 309.687,259.200 309.639,259.200 309.535 C 259.200 309.486,258.548 309.062,257.750 308.594 C 255.911 307.513,256.000 307.561,256.000 307.665 M318.650 308.423 C 317.968 308.860,317.748 309.153,318.350 308.822 C 318.809 308.569,319.528 308.014,319.400 308.010 C 319.345 308.008,319.007 308.194,318.650 308.423 M104.100 308.800 C 104.271 309.130,104.455 309.400,104.510 309.400 C 104.565 309.400,104.471 309.130,104.300 308.800 C 104.129 308.470,103.945 308.200,103.890 308.200 C 103.835 308.200,103.929 308.470,104.100 308.800 M328.250 309.223 C 327.568 309.660,327.348 309.953,327.950 309.622 C 328.409 309.369,329.128 308.814,329.000 308.810 C 328.945 308.808,328.608 308.994,328.250 309.223 M271.100 309.304 C 271.320 309.483,271.680 309.718,271.900 309.826 L 272.300 310.022 271.900 309.696 C 271.680 309.517,271.320 309.282,271.100 309.174 L 270.700 308.978 271.100 309.304 M316.896 309.528 C 315.876 310.205,315.516 310.562,316.313 310.107 C 317.015 309.707,317.951 309.011,317.796 309.004 C 317.739 309.002,317.334 309.238,316.896 309.528 M338.258 309.250 C 337.390 310.383,336.933 311.060,337.104 310.956 C 337.341 310.814,338.669 309.000,338.537 309.000 C 338.489 309.000,338.363 309.113,338.258 309.250 M104.782 309.966 C 104.890 310.168,105.135 310.460,105.327 310.616 C 105.543 310.792,105.495 310.652,105.201 310.250 C 104.675 309.532,104.478 309.399,104.782 309.966 M326.496 310.328 C 325.476 311.005,325.116 311.362,325.913 310.907 C 326.615 310.507,327.551 309.811,327.396 309.804 C 327.339 309.802,326.934 310.038,326.496 310.328 M272.783 310.341 C 273.049 310.539,273.634 310.906,274.083 311.159 C 274.532 311.411,274.683 311.456,274.417 311.259 C 274.151 311.061,273.566 310.694,273.117 310.441 C 272.668 310.189,272.517 310.144,272.783 310.341 M247.600 311.400 C 248.048 312.060,248.460 312.600,248.515 312.600 C 248.570 312.600,248.248 312.060,247.800 311.400 C 247.352 310.740,246.940 310.200,246.885 310.200 C 246.830 310.200,247.152 310.740,247.600 311.400 M260.400 310.264 C 260.400 310.311,261.278 310.870,262.350 311.505 C 264.737 312.917,264.600 312.842,264.600 312.736 C 264.600 312.689,263.723 312.130,262.650 311.495 C 260.263 310.083,260.400 310.158,260.400 310.264 M314.850 310.823 C 314.168 311.260,313.948 311.553,314.550 311.222 C 315.009 310.969,315.728 310.414,315.600 310.410 C 315.545 310.408,315.207 310.594,314.850 310.823 M95.800 310.672 C 95.800 310.889,96.994 313.200,97.106 313.200 C 97.161 313.200,96.924 312.638,96.579 311.950 C 95.926 310.647,95.800 310.440,95.800 310.672 M106.301 311.769 C 107.194 312.740,109.065 314.132,110.342 314.776 C 111.696 315.458,111.618 315.255,110.241 314.513 C 108.744 313.706,107.847 313.060,106.501 311.820 L 105.501 310.900 106.301 311.769 M324.296 311.728 C 323.276 312.405,322.916 312.762,323.713 312.307 C 324.415 311.907,325.351 311.211,325.196 311.204 C 325.139 311.202,324.734 311.438,324.296 311.728 M336.286 311.950 C 335.977 312.363,335.506 313.015,335.240 313.400 L 334.756 314.100 335.278 313.500 C 335.950 312.727,337.051 311.200,336.936 311.200 C 336.887 311.200,336.595 311.538,336.286 311.950 M313.096 311.928 C 312.076 312.605,311.716 312.962,312.513 312.507 C 313.215 312.107,314.151 311.411,313.996 311.404 C 313.939 311.402,313.534 311.638,313.096 311.928 M275.383 311.941 C 275.649 312.139,276.234 312.506,276.683 312.759 C 277.132 313.011,277.283 313.056,277.017 312.859 C 276.751 312.661,276.166 312.294,275.717 312.041 C 275.268 311.789,275.117 311.744,275.383 311.941 M322.096 313.128 C 321.076 313.805,320.716 314.162,321.513 313.707 C 322.215 313.307,323.151 312.611,322.996 312.604 C 322.939 312.602,322.534 312.838,322.096 313.128 M249.200 313.700 C 249.541 314.195,249.864 314.600,249.919 314.600 C 249.974 314.600,249.741 314.195,249.400 313.700 C 249.059 313.205,248.736 312.800,248.681 312.800 C 248.626 312.800,248.859 313.205,249.200 313.700 M311.050 313.223 C 310.368 313.660,310.148 313.953,310.750 313.622 C 311.209 313.369,311.928 312.814,311.800 312.810 C 311.745 312.808,311.408 312.994,311.050 313.223 M277.900 313.504 C 278.120 313.683,278.480 313.918,278.700 314.026 L 279.100 314.222 278.700 313.896 C 278.480 313.717,278.120 313.482,277.900 313.374 L 277.500 313.178 277.900 313.504 M265.800 313.464 C 265.800 313.511,266.678 314.070,267.750 314.705 C 270.137 316.117,270.000 316.042,270.000 315.936 C 270.000 315.889,269.123 315.330,268.050 314.695 C 265.663 313.283,265.800 313.358,265.800 313.464 M320.050 314.423 C 319.368 314.860,319.148 315.153,319.750 314.822 C 320.209 314.569,320.928 314.014,320.800 314.010 C 320.745 314.008,320.408 314.194,320.050 314.423 M308.850 314.623 C 308.168 315.060,307.948 315.353,308.550 315.022 C 309.009 314.769,309.728 314.214,309.600 314.210 C 309.545 314.208,309.207 314.394,308.850 314.623 M334.086 314.950 C 333.777 315.363,333.306 316.015,333.040 316.400 L 332.556 317.100 333.078 316.500 C 333.750 315.727,334.851 314.200,334.736 314.200 C 334.687 314.200,334.395 314.538,334.086 314.950 M98.420 315.200 C 99.009 316.106,102.294 319.391,103.200 319.980 C 103.839 320.395,103.830 320.377,103.100 319.778 C 102.069 318.933,99.467 316.331,98.622 315.300 C 98.023 314.570,98.005 314.561,98.420 315.200 M250.800 316.000 C 251.248 316.660,251.660 317.200,251.715 317.200 C 251.770 317.200,251.448 316.660,251.000 316.000 C 250.552 315.340,250.140 314.800,250.085 314.800 C 250.030 314.800,250.352 315.340,250.800 316.000 M280.500 315.104 C 280.720 315.283,281.080 315.518,281.300 315.626 L 281.700 315.822 281.300 315.496 C 281.080 315.317,280.720 315.082,280.500 314.974 L 280.100 314.778 280.500 315.104 M318.296 315.528 C 317.276 316.205,316.916 316.562,317.713 316.107 C 318.415 315.707,319.351 315.011,319.196 315.004 C 319.139 315.002,318.734 315.238,318.296 315.528 M307.096 315.728 C 306.076 316.405,305.716 316.762,306.513 316.307 C 307.215 315.907,308.151 315.211,307.996 315.204 C 307.939 315.202,307.534 315.438,307.096 315.728 M112.900 315.800 C 113.120 315.895,113.480 315.969,113.700 315.966 C 114.022 315.961,114.002 315.929,113.600 315.800 C 112.916 315.581,112.390 315.581,112.900 315.800 M144.934 316.350 C 161.012 316.378,187.382 316.378,203.534 316.350 C 219.685 316.322,206.530 316.299,174.300 316.299 C 142.070 316.299,128.855 316.322,144.934 316.350 M233.596 316.657 C 233.869 316.795,234.205 317.131,234.343 317.404 C 234.528 317.769,234.595 317.808,234.597 317.550 C 234.599 317.358,234.420 317.020,234.200 316.800 C 233.980 316.580,233.643 316.401,233.450 316.403 C 233.192 316.405,233.231 316.472,233.596 316.657 M283.100 316.704 C 283.320 316.883,283.680 317.118,283.900 317.226 L 284.300 317.422 283.900 317.096 C 283.680 316.917,283.320 316.682,283.100 316.574 L 282.700 316.378 283.100 316.704 M316.096 316.928 C 315.076 317.605,314.716 317.962,315.513 317.507 C 316.215 317.107,317.151 316.411,316.996 316.404 C 316.939 316.402,316.534 316.638,316.096 316.928 M271.200 316.664 C 271.200 316.711,272.078 317.270,273.150 317.905 C 275.537 319.317,275.400 319.242,275.400 319.136 C 275.400 319.089,274.522 318.530,273.450 317.895 C 271.063 316.483,271.200 316.558,271.200 316.664 M305.050 317.023 C 304.368 317.460,304.148 317.753,304.750 317.422 C 305.209 317.169,305.928 316.614,305.800 316.610 C 305.745 316.608,305.407 316.794,305.050 317.023 M332.258 317.450 C 331.390 318.583,330.933 319.260,331.104 319.156 C 331.341 319.014,332.669 317.200,332.537 317.200 C 332.489 317.200,332.363 317.313,332.258 317.450 M252.600 318.600 C 253.048 319.260,253.460 319.800,253.515 319.800 C 253.570 319.800,253.248 319.260,252.800 318.600 C 252.352 317.940,251.940 317.400,251.885 317.400 C 251.830 317.400,252.152 317.940,252.600 318.600 M303.296 318.128 C 302.276 318.805,301.916 319.162,302.713 318.707 C 303.415 318.307,304.351 317.611,304.196 317.604 C 304.139 317.602,303.734 317.838,303.296 318.128 M313.896 318.328 C 312.876 319.005,312.516 319.362,313.313 318.907 C 314.015 318.507,314.951 317.811,314.796 317.804 C 314.739 317.802,314.334 318.038,313.896 318.328 M285.700 318.304 C 285.920 318.483,286.280 318.718,286.500 318.826 L 286.900 319.022 286.500 318.696 C 286.280 318.517,285.920 318.282,285.700 318.174 L 285.300 317.978 285.700 318.304 M234.676 320.500 C 234.677 321.820,234.709 322.334,234.748 321.642 C 234.787 320.950,234.787 319.870,234.748 319.242 C 234.708 318.614,234.676 319.180,234.676 320.500 M235.471 320.500 C 235.470 321.490,235.504 321.920,235.546 321.456 C 235.588 320.992,235.589 320.182,235.547 319.656 C 235.506 319.130,235.472 319.510,235.471 320.500 M287.300 319.304 C 287.520 319.483,287.880 319.718,288.100 319.826 L 288.500 320.022 288.100 319.696 C 287.880 319.517,287.520 319.282,287.300 319.174 L 286.900 318.978 287.300 319.304 M301.250 319.423 C 300.568 319.860,300.348 320.153,300.950 319.822 C 301.409 319.569,302.128 319.014,302.000 319.010 C 301.945 319.008,301.608 319.194,301.250 319.423 M311.850 319.623 C 311.168 320.060,310.948 320.353,311.550 320.022 C 312.009 319.769,312.728 319.214,312.600 319.210 C 312.545 319.208,312.207 319.394,311.850 319.623 M330.286 320.150 C 329.977 320.563,329.506 321.215,329.240 321.600 L 328.756 322.300 329.278 321.700 C 329.950 320.927,331.051 319.400,330.936 319.400 C 330.887 319.400,330.595 319.738,330.286 320.150 M276.600 319.864 C 276.600 319.911,277.478 320.470,278.550 321.105 C 280.937 322.517,280.800 322.442,280.800 322.336 C 280.800 322.289,279.923 321.730,278.850 321.095 C 276.463 319.683,276.600 319.758,276.600 319.864 M254.400 321.200 C 254.848 321.860,255.260 322.400,255.315 322.400 C 255.370 322.400,255.048 321.860,254.600 321.200 C 254.152 320.540,253.740 320.000,253.685 320.000 C 253.630 320.000,253.952 320.540,254.400 321.200 M299.496 320.528 C 298.476 321.205,298.116 321.562,298.913 321.107 C 299.615 320.707,300.551 320.011,300.396 320.004 C 300.339 320.002,299.934 320.238,299.496 320.528 M289.900 320.904 C 290.120 321.083,290.480 321.318,290.700 321.426 L 291.100 321.622 290.700 321.296 C 290.480 321.117,290.120 320.882,289.900 320.774 L 289.500 320.578 289.900 320.904 M309.650 321.023 C 308.968 321.460,308.748 321.753,309.350 321.422 C 309.809 321.169,310.528 320.614,310.400 320.610 C 310.345 320.608,310.007 320.794,309.650 321.023 M105.200 321.299 C 105.200 321.433,108.024 322.842,108.113 322.753 C 108.153 322.713,107.514 322.348,106.693 321.942 C 105.872 321.536,105.200 321.246,105.200 321.299 M297.450 321.823 C 296.768 322.260,296.548 322.553,297.150 322.222 C 297.609 321.969,298.328 321.414,298.200 321.410 C 298.145 321.408,297.808 321.594,297.450 321.823 M307.896 322.128 C 306.876 322.805,306.516 323.162,307.313 322.707 C 308.015 322.307,308.951 321.611,308.796 321.604 C 308.739 321.602,308.334 321.838,307.896 322.128 M292.200 322.299 C 292.200 322.434,293.825 323.242,293.915 323.152 C 293.957 323.110,293.588 322.880,293.096 322.640 C 292.603 322.401,292.200 322.247,292.200 322.299 M295.800 322.800 C 295.415 323.011,295.172 323.187,295.260 323.192 C 295.472 323.203,296.600 322.616,296.600 322.495 C 296.600 322.364,296.588 322.368,295.800 322.800 M328.086 323.150 C 327.777 323.563,327.306 324.215,327.040 324.600 L 326.556 325.300 327.078 324.700 C 327.750 323.927,328.851 322.400,328.736 322.400 C 328.687 322.400,328.395 322.738,328.086 323.150 M256.000 323.500 C 256.341 323.995,256.664 324.400,256.719 324.400 C 256.774 324.400,256.541 323.995,256.200 323.500 C 255.859 323.005,255.536 322.600,255.481 322.600 C 255.426 322.600,255.659 323.005,256.000 323.500 M282.000 323.064 C 282.000 323.111,282.877 323.670,283.950 324.305 C 286.337 325.717,286.200 325.642,286.200 325.536 C 286.200 325.489,285.322 324.930,284.250 324.295 C 281.863 322.883,282.000 322.958,282.000 323.064 M305.850 323.423 C 305.168 323.860,304.948 324.153,305.550 323.822 C 306.009 323.569,306.728 323.014,306.600 323.010 C 306.545 323.008,306.207 323.194,305.850 323.423 M234.297 323.646 C 234.189 323.892,233.875 324.206,233.600 324.344 C 233.235 324.526,233.194 324.595,233.450 324.597 C 233.877 324.601,234.600 323.911,234.600 323.500 C 234.600 323.089,234.529 323.123,234.297 323.646 M114.950 324.541 C 115.197 324.589,115.603 324.589,115.850 324.541 C 116.097 324.493,115.895 324.454,115.400 324.454 C 114.905 324.454,114.703 324.493,114.950 324.541 M303.650 324.823 C 302.968 325.260,302.748 325.553,303.350 325.222 C 303.809 324.969,304.528 324.414,304.400 324.410 C 304.345 324.408,304.007 324.594,303.650 324.823 M145.750 324.750 C 161.728 324.778,187.873 324.778,203.850 324.750 C 219.828 324.722,206.755 324.699,174.800 324.699 C 142.845 324.699,129.773 324.722,145.750 324.750 M257.600 325.800 C 258.048 326.460,258.460 327.000,258.515 327.000 C 258.570 327.000,258.248 326.460,257.800 325.800 C 257.352 325.140,256.940 324.600,256.885 324.600 C 256.830 324.600,257.152 325.140,257.600 325.800 M326.258 325.650 C 325.390 326.783,324.933 327.460,325.104 327.356 C 325.341 327.214,326.669 325.400,326.537 325.400 C 326.489 325.400,326.363 325.513,326.258 325.650 M301.450 326.223 C 300.768 326.660,300.548 326.953,301.150 326.622 C 301.609 326.369,302.328 325.814,302.200 325.810 C 302.145 325.808,301.808 325.994,301.450 326.223 M287.500 326.340 C 287.610 326.454,288.150 326.799,288.700 327.106 C 289.250 327.414,289.610 327.573,289.500 327.460 C 289.390 327.346,288.850 327.001,288.300 326.694 C 287.750 326.386,287.390 326.227,287.500 326.340 M299.696 327.328 C 298.676 328.005,298.316 328.362,299.113 327.907 C 299.815 327.507,300.751 326.811,300.596 326.804 C 300.539 326.802,300.134 327.038,299.696 327.328 M259.400 328.400 C 259.848 329.060,260.260 329.600,260.315 329.600 C 260.370 329.600,260.048 329.060,259.600 328.400 C 259.152 327.740,258.740 327.200,258.685 327.200 C 258.630 327.200,258.952 327.740,259.400 328.400 M324.286 328.350 C 323.977 328.763,323.506 329.415,323.240 329.800 L 322.756 330.500 323.278 329.900 C 323.950 329.127,325.051 327.600,324.936 327.600 C 324.887 327.600,324.595 327.938,324.286 328.350 M290.800 328.290 C 290.800 328.345,291.070 328.529,291.400 328.700 C 291.730 328.871,292.000 328.965,292.000 328.910 C 292.000 328.855,291.730 328.671,291.400 328.500 C 291.070 328.329,290.800 328.235,290.800 328.290 M296.400 329.300 C 295.905 329.565,295.571 329.786,295.658 329.791 C 295.870 329.803,297.400 329.017,297.400 328.896 C 297.400 328.763,297.408 328.760,296.400 329.300 M261.200 331.000 C 261.648 331.660,262.060 332.200,262.115 332.200 C 262.170 332.200,261.848 331.660,261.400 331.000 C 260.952 330.340,260.540 329.800,260.485 329.800 C 260.430 329.800,260.752 330.340,261.200 331.000 M294.352 329.941 C 294.601 329.989,294.961 329.987,295.152 329.937 C 295.344 329.887,295.140 329.848,294.700 329.850 C 294.260 329.853,294.104 329.894,294.352 329.941 M322.458 330.850 C 321.590 331.983,321.133 332.660,321.304 332.556 C 321.541 332.414,322.869 330.600,322.737 330.600 C 322.689 330.600,322.563 330.713,322.458 330.850 M262.800 333.300 C 263.141 333.795,263.464 334.200,263.519 334.200 C 263.574 334.200,263.341 333.795,263.000 333.300 C 262.659 332.805,262.336 332.400,262.281 332.400 C 262.226 332.400,262.459 332.805,262.800 333.300 M320.486 333.550 C 320.177 333.963,319.706 334.615,319.440 335.000 L 318.956 335.700 319.478 335.100 C 320.150 334.327,321.251 332.800,321.136 332.800 C 321.087 332.800,320.795 333.138,320.486 333.550 M264.400 335.600 C 264.848 336.260,265.260 336.800,265.315 336.800 C 265.370 336.800,265.048 336.260,264.600 335.600 C 264.152 334.940,263.740 334.400,263.685 334.400 C 263.630 334.400,263.952 334.940,264.400 335.600 M318.286 336.550 C 317.977 336.963,317.506 337.615,317.240 338.000 L 316.756 338.700 317.278 338.100 C 317.950 337.327,319.051 335.800,318.936 335.800 C 318.887 335.800,318.595 336.138,318.286 336.550 M266.200 338.200 C 266.648 338.860,267.060 339.400,267.115 339.400 C 267.170 339.400,266.848 338.860,266.400 338.200 C 265.952 337.540,265.540 337.000,265.485 337.000 C 265.430 337.000,265.752 337.540,266.200 338.200 M316.458 339.050 C 315.590 340.183,315.133 340.860,315.304 340.756 C 315.541 340.614,316.869 338.800,316.737 338.800 C 316.689 338.800,316.563 338.913,316.458 339.050 M267.800 340.500 C 268.141 340.995,268.464 341.400,268.519 341.400 C 268.574 341.400,268.341 340.995,268.000 340.500 C 267.659 340.005,267.336 339.600,267.281 339.600 C 267.226 339.600,267.459 340.005,267.800 340.500 M314.486 341.750 C 314.177 342.163,313.706 342.815,313.440 343.200 L 312.956 343.900 313.478 343.300 C 314.150 342.527,315.251 341.000,315.136 341.000 C 315.087 341.000,314.795 341.338,314.486 341.750 M269.400 342.800 C 269.848 343.460,270.260 344.000,270.315 344.000 C 270.370 344.000,270.048 343.460,269.600 342.800 C 269.152 342.140,268.740 341.600,268.685 341.600 C 268.630 341.600,268.952 342.140,269.400 342.800 M312.286 344.750 C 311.977 345.163,311.506 345.815,311.240 346.200 L 310.756 346.900 311.278 346.300 C 311.950 345.527,313.051 344.000,312.936 344.000 C 312.887 344.000,312.595 344.338,312.286 344.750 M271.200 345.400 C 271.648 346.060,272.060 346.600,272.115 346.600 C 272.170 346.600,271.848 346.060,271.400 345.400 C 270.952 344.740,270.540 344.200,270.485 344.200 C 270.430 344.200,270.752 344.740,271.200 345.400 M273.000 348.000 C 273.448 348.660,273.860 349.200,273.915 349.200 C 273.970 349.200,273.648 348.660,273.200 348.000 C 272.752 347.340,272.340 346.800,272.285 346.800 C 272.230 346.800,272.552 347.340,273.000 348.000 M310.458 347.250 C 309.590 348.383,309.133 349.060,309.304 348.956 C 309.541 348.814,310.869 347.000,310.737 347.000 C 310.689 347.000,310.563 347.113,310.458 347.250 M308.486 349.950 C 308.177 350.363,307.706 351.015,307.440 351.400 L 306.956 352.100 307.478 351.500 C 308.150 350.727,309.251 349.200,309.136 349.200 C 309.087 349.200,308.795 349.538,308.486 349.950 M274.600 350.300 C 274.941 350.795,275.264 351.200,275.319 351.200 C 275.374 351.200,275.141 350.795,274.800 350.300 C 274.459 349.805,274.136 349.400,274.081 349.400 C 274.026 349.400,274.259 349.805,274.600 350.300 M276.200 352.600 C 276.648 353.260,277.060 353.800,277.115 353.800 C 277.170 353.800,276.848 353.260,276.400 352.600 C 275.952 351.940,275.540 351.400,275.485 351.400 C 275.430 351.400,275.752 351.940,276.200 352.600 M306.658 352.450 C 305.790 353.583,305.333 354.260,305.504 354.156 C 305.741 354.014,307.069 352.200,306.937 352.200 C 306.889 352.200,306.763 352.313,306.658 352.450 M278.000 355.200 C 278.448 355.860,278.860 356.400,278.915 356.400 C 278.970 356.400,278.648 355.860,278.200 355.200 C 277.752 354.540,277.340 354.000,277.285 354.000 C 277.230 354.000,277.552 354.540,278.000 355.200 M304.686 355.150 C 304.377 355.563,303.906 356.215,303.640 356.600 L 303.156 357.300 303.678 356.700 C 304.350 355.927,305.451 354.400,305.336 354.400 C 305.287 354.400,304.995 354.738,304.686 355.150 M279.600 357.500 C 279.941 357.995,280.264 358.400,280.319 358.400 C 280.374 358.400,280.141 357.995,279.800 357.500 C 279.459 357.005,279.136 356.600,279.081 356.600 C 279.026 356.600,279.259 357.005,279.600 357.500 M302.486 358.150 C 302.177 358.563,301.706 359.215,301.440 359.600 L 300.956 360.300 301.478 359.700 C 302.150 358.927,303.251 357.400,303.136 357.400 C 303.087 357.400,302.795 357.738,302.486 358.150 M281.200 359.800 C 281.648 360.460,282.060 361.000,282.115 361.000 C 282.170 361.000,281.848 360.460,281.400 359.800 C 280.952 359.140,280.540 358.600,280.485 358.600 C 280.430 358.600,280.752 359.140,281.200 359.800 M300.658 360.650 C 299.790 361.783,299.333 362.460,299.504 362.356 C 299.741 362.214,301.069 360.400,300.937 360.400 C 300.889 360.400,300.763 360.513,300.658 360.650 M283.000 362.400 C 283.448 363.060,283.860 363.600,283.915 363.600 C 283.970 363.600,283.648 363.060,283.200 362.400 C 282.752 361.740,282.340 361.200,282.285 361.200 C 282.230 361.200,282.552 361.740,283.000 362.400 M298.686 363.350 C 298.377 363.763,297.906 364.415,297.640 364.800 L 297.156 365.500 297.678 364.900 C 298.350 364.127,299.451 362.600,299.336 362.600 C 299.287 362.600,298.995 362.938,298.686 363.350 M284.800 365.000 C 285.248 365.660,285.660 366.200,285.715 366.200 C 285.770 366.200,285.448 365.660,285.000 365.000 C 284.552 364.340,284.140 363.800,284.085 363.800 C 284.030 363.800,284.352 364.340,284.800 365.000 M296.486 366.350 C 296.177 366.763,295.706 367.415,295.440 367.800 L 294.956 368.500 295.478 367.900 C 296.150 367.127,297.251 365.600,297.136 365.600 C 297.087 365.600,296.795 365.938,296.486 366.350 M286.400 367.300 C 286.741 367.795,287.064 368.200,287.119 368.200 C 287.174 368.200,286.941 367.795,286.600 367.300 C 286.259 366.805,285.936 366.400,285.881 366.400 C 285.826 366.400,286.059 366.805,286.400 367.300 M288.000 369.600 C 288.448 370.260,288.860 370.800,288.915 370.800 C 288.970 370.800,288.648 370.260,288.200 369.600 C 287.752 368.940,287.340 368.400,287.285 368.400 C 287.230 368.400,287.552 368.940,288.000 369.600 M293.696 370.150 C 291.410 373.225,291.122 373.350,289.784 371.850 C 289.318 371.328,289.059 371.080,289.208 371.300 C 290.805 373.656,291.367 373.543,293.702 370.400 C 294.234 369.685,294.754 368.988,294.859 368.850 C 294.963 368.713,295.004 368.600,294.949 368.600 C 294.894 368.600,294.330 369.298,293.696 370.150 "
              stroke="none" fill="#e4f4fc" fill-rule="evenodd"></path>
    </g>
</svg>